<?xml version="1.0" standalone="no"?>
<!DOCTYPE svg PUBLIC "-//W3C//DTD SVG 1.1//EN" "http://www.w3.org/Graphics/SVG/1.1/DTD/svg11.dtd" >
<svg xmlns="http://www.w3.org/2000/svg">
<metadata>
This is a custom SVG webfont generated by Font Squirrel.
Copyright   : Copyright c 2008 by Jovanny Lemonad  Erico Lebedenco All rights reserved
Designer    : Jovanny Lemonad and Erico Lebedenco
Foundry     : Jovanny Lemonad  Erico Lebedenco
Foundry URL : httpneuchalivejournalcom
</metadata>
<defs>
<font id="webfontSQEbZBuY" horiz-adv-x="512" >
<font-face units-per-em="2048" ascent="1638" descent="-410" />
<missing-glyph horiz-adv-x="500" />
<glyph unicode=" " />
<glyph unicode="!" horiz-adv-x="548" d="M371 1352l-37 -1035h-119l-37 1035h193zM274 193q45 0 78 -32t33 -77q0 -47 -33 -80t-78 -33t-77.5 33t-32.5 80q0 45 32.5 77t77.5 32z" />
<glyph unicode="&#x22;" horiz-adv-x="778" d="M594 799h-82l-61 553h204zM266 799h-82l-61 553h205z" />
<glyph unicode="#" horiz-adv-x="1433" d="M399 -31h-82l82 400h-276v82h295l84 409h-256v82h272l86 410h82l-86 -410h348l86 410h82l-86 -410h281v-82h-297l-86 -409h260v-82h-277l-82 -400h-81l81 400h-348zM584 860l-86 -409h350l84 409h-348z" />
<glyph unicode="$" horiz-adv-x="1077" d="M557 -164h-82v133q-158 16 -270.5 83t-112.5 163v219h37q31 -184 116 -276t230 -109v553l-143 86q-131 76 -185.5 157t-54.5 195q0 156 104.5 250t278.5 99v116h82v-121q150 -14 262.5 -79.5t112.5 -161.5v-219h-37q-31 182 -114 272t-224 107v-519l174 -102 q137 -80 195.5 -154.5t58.5 -183.5q0 -174 -114.5 -276.5t-313.5 -102.5v-129zM584 539l-27 14v-506q106 4 179 59.5t73 149.5q0 86 -53 149.5t-172 133.5zM252 1100q0 -84 51 -139.5t172 -126.5v473q-92 -4 -157.5 -61.5t-65.5 -145.5z" />
<glyph unicode="%" horiz-adv-x="1290" d="M225 0h-92l932 1352h92zM225 0h-92l932 1352h92zM1229 245.5q0 -110.5 -74 -178t-203 -67.5t-202.5 67.5t-73.5 178t73.5 178.5t202.5 68t203 -68t74 -178.5zM809 246q0 -84 40 -134.5t103.5 -50.5t103.5 50.5t40 134.5t-40 134t-103.5 50t-103.5 -50t-40 -134zM614 1106 q0 -111 -73.5 -178.5t-202.5 -67.5t-203 67.5t-74 178.5t74 178.5t203 67.5t202.5 -67.5t73.5 -178.5zM195 1106q0 -84 39.5 -134t103 -50t103.5 50t40 134t-40 134t-103.5 50t-103 -50t-39.5 -134z" />
<glyph unicode="&#x26;" horiz-adv-x="1157" d="M512 -41q-219 0 -335 107.5t-116 271.5q0 115 62.5 208t163.5 136q-113 168 -113 322q0 117 35 197.5t94 120.5t119.5 55.5t130.5 15.5q119 0 225.5 -47.5t163.5 -116.5q51 -61 51 -266h-41q-29 162 -126 255t-212 93q-98 0 -166.5 -81t-68.5 -226q0 -49 11 -97.5 t23.5 -85.5t47.5 -87l54 -78q19 -28 76 -86l80 -82l98 -94l101 -97q76 168 93 358h61v-61q0 -205 -84 -375l156 -147l-72 -70l-143 121q-146 -164 -369 -164zM809 184q-254 211 -440 402q-113 -84 -113 -248q0 -131 75 -214t222 -83t256 143z" />
<glyph unicode="'" horiz-adv-x="450" d="M266 799h-82l-61 553h205z" />
<glyph unicode="(" horiz-adv-x="573" d="M41 491.5q0 294.5 127 511t385 410.5l20 -31q-348 -307 -348 -890.5t348 -890.5l-20 -31q-258 195 -385 411t-127 510.5z" />
<glyph unicode=")" horiz-adv-x="573" d="M532 491.5q0 -294.5 -126.5 -511t-385.5 -410.5l-20 31q348 307 348 890.5t-348 890.5l20 31q258 -195 385 -411t127 -510.5z" />
<glyph unicode="*" horiz-adv-x="921" d="M440 1044l-61 308h164l-62 -308l236 216l82 -144l-297 -102l297 -103l-82 -143l-236 215l62 -307h-164l61 307l-235 -215l-82 143l297 103l-297 102l82 144z" />
<glyph unicode="+" horiz-adv-x="1024" d="M471 205v430h-430v82h430v430h82v-430h430v-82h-430v-430h-82z" />
<glyph unicode="," horiz-adv-x="460" d="M133 -317l-20 30q164 115 163 277l-61 -21q-47 0 -80 34t-33 79q0 53 35 88t88 35q61 0 97 -38t36 -106q0 -249 -225 -378z" />
<glyph unicode="-" horiz-adv-x="686" d="M82 471v143h522v-143h-522z" />
<glyph unicode="." horiz-adv-x="425" d="M213 195q47 0 79 -33t32 -78q0 -47 -33 -80t-78 -33t-78 33t-33 80q0 45 33 78t78 33z" />
<glyph unicode="/" horiz-adv-x="808" d="M92 -82l-72 31l697 1515l71 -30z" />
<glyph unicode="0" horiz-adv-x="1146" d="M573.5 1311q-163.5 0 -225 -149.5t-61.5 -485.5t61.5 -485.5t225 -149.5t225 149.5t61.5 485.5t-61.5 485.5t-225 149.5zM573.5 1393q491.5 0 491.5 -717t-491.5 -717t-491.5 717t491.5 717z" />
<glyph unicode="1" horiz-adv-x="593" d="M410 1352v-1352h-185v1147l-205 -123l-30 41l317 287h103z" />
<glyph unicode="2" horiz-adv-x="1044" d="M205 82h461q256 0 256 215h41v-133q0 -164 -175 -164h-727v102l170 163l153 148l117 121q73 77 102.5 120.5t65.5 107t47 120t11 122.5q0 147 -76 227t-190 80q-125 0 -216 -91.5t-122 -256.5h-41q0 205 49 266q57 70 164.5 117t226.5 47q55 0 106.5 -8.5t109 -35 t98.5 -67.5t68.5 -112.5t27.5 -165.5q0 -100 -35 -190.5t-117 -186t-151 -161.5l-207 -188z" />
<glyph unicode="3" horiz-adv-x="1024" d="M877 1270l-529 -512q72 20 184 20q43 0 92.5 -8t112 -34.5t110.5 -68.5t82 -117t34 -171q0 -102 -34 -181t-85 -123t-119 -71t-126 -36t-118 -9q-145 0 -247.5 53.5t-192.5 161.5l31 41q158 -174 379 -174q133 0 220 85t87 253q0 150 -82 233.5t-184 83.5 q-106 0 -246 -30l-51 71l532 533h-358q-256 0 -256 -215h-41v133q0 164 174 164h631v-82z" />
<glyph unicode="4" horiz-adv-x="1064" d="M860 1352v-922h184v-82h-184v-348h-184v348h-656v82l676 922h164zM143 430h533v725z" />
<glyph unicode="5" horiz-adv-x="1024" d="M451 696l-287 -10l-72 80l21 586h768v-82h-605l-20 -492h236q61 0 119.5 -8t125 -34.5t114.5 -68.5t80 -117t32 -171q0 -102 -34 -181t-85 -123t-119 -71t-126 -36t-118 -9q-145 0 -247.5 53.5t-192.5 161.5l31 41q158 -174 379 -174q133 0 220 85t87 253 q0 158 -82 237.5t-225 79.5z" />
<glyph unicode="6" horiz-adv-x="1064" d="M266 696q0 -354 59.5 -504.5t196.5 -150.5t201.5 108.5t64.5 270.5q0 186 -58 282.5t-198 96.5q-147 -1 -266 -103zM82 676q0 379 111.5 548t390.5 169q133 0 297 -62l-11 -41q-123 20 -245 21q-203 0 -281 -132t-78 -391q129 92 328 93q389 0 389 -461 q0 -197 -112.5 -329t-348 -132t-338 172t-102.5 545z" />
<glyph unicode="7" horiz-adv-x="931" d="M911 1270l-512 -1270h-184l512 1270h-410q-256 0 -256 -215h-41v133q0 164 175 164h716v-82z" />
<glyph unicode="8" horiz-adv-x="1105" d="M973 1065q0 -213 -256 -338q72 -41 116 -72.5t93 -81t73.5 -111t24.5 -134.5q0 -188 -131 -278.5t-340 -90.5q-207 0 -339 87t-132 261q0 139 89 226.5t239 152.5q-131 76 -204 156t-73 202q0 186 116 267.5t304 81.5q186 0 303 -78t117 -250zM829 287q0 119 -83.5 197.5 t-243.5 160.5q-106 -53 -166 -129t-60 -209q0 -131 80 -198.5t197 -67.5q115 0 195.5 64.5t80.5 181.5zM328 1085q0 -168 297 -307q74 55 113.5 119t39.5 168q0 133 -66.5 189.5t-158.5 56.5t-158.5 -53.5t-66.5 -172.5z" />
<glyph unicode="9" horiz-adv-x="1064" d="M799 655q0 354 -59.5 505t-196.5 151t-202 -108.5t-65 -270.5q0 -186 58.5 -282.5t197.5 -96.5q148 0 267 102zM983 676q0 -379 -111.5 -548t-390.5 -169q-133 0 -297 61l11 41q123 -20 245 -20q203 0 281 132t78 390q-129 -92 -328 -92q-389 0 -389 461q0 197 112.5 329 t348 132t338 -172t102.5 -545z" />
<glyph unicode=":" horiz-adv-x="428" d="M215 944q47 0 79 -32.5t32 -77.5q0 -47 -32 -79t-79 -32q-45 0 -78 31.5t-33 79.5q0 45 33 77.5t78 32.5zM213 195q47 0 80 -33t33 -78q0 -47 -33 -80t-80 -33q-45 0 -78 33t-33 80q0 45 33 78t78 33z" />
<glyph unicode=";" horiz-adv-x="460" d="M236 944q45 0 77.5 -31.5t32.5 -76.5q0 -47 -32.5 -79t-77.5 -32q-47 0 -80 31.5t-33 79.5q0 45 33 76.5t80 31.5zM133 -315l-22 28q86 68 125.5 130.5t39.5 156.5q-31 -31 -71 -31q-45 0 -74 33t-29 80t37 85t97 38q55 0 88.5 -44t33.5 -120q0 -109 -52 -191.5 t-173 -164.5z" />
<glyph unicode="&#x3c;" horiz-adv-x="1187" d="M1106 1096l-942 -410l942 -410v-81l-1065 460v62l1065 461v-82z" />
<glyph unicode="=" horiz-adv-x="1239" d="M82 799v82h1075v-82h-1075zM82 471v82h1075v-82h-1075z" />
<glyph unicode="&#x3e;" horiz-adv-x="1187" d="M1024 686l-942 410v82l1065 -461v-62l-1065 -460v81z" />
<glyph unicode="?" horiz-adv-x="954" d="M422 197q47 0 80 -33t33 -80q0 -45 -34 -78t-79 -33q-47 0 -79 33t-32 78q0 47 32 80t79 33zM463 319h-82q2 92 35 169t78 130l89 107q44 53 74.5 124t30.5 155q0 147 -75.5 227t-190.5 80q-125 0 -217 -91.5t-123 -256.5h-41q0 205 51 266q57 70 165 117t226 47 q55 0 106.5 -8.5t109 -35t98.5 -67.5t68.5 -112.5t27.5 -165.5q0 -82 -31 -153t-78 -119t-102 -98l-103 -92q-48 -42 -81 -101t-35 -122z" />
<glyph unicode="@" horiz-adv-x="1761" d="M1055 225v277h-62q-152 0 -239.5 -56.5t-87.5 -148.5q0 -94 56 -144.5t138 -50.5q113 0 195 123zM881 -369q-362 0 -580.5 230.5t-218.5 650.5t218 650.5t581 230.5q360 0 579 -223.5t219 -616.5q0 -254 -99 -398.5t-300 -144.5q-166 0 -215 113h-10q-90 -113 -287 -113 q-47 0 -95 14.5t-95.5 44t-77 89t-29.5 139.5q0 287 522 287h62q0 199 -55.5 273.5t-159.5 74.5q-184 0 -226 -174h-92q0 47 2 70.5t13.5 56.5t35.5 57q72 72 308 72q78 0 135 -16.5t111.5 -59.5t83 -132t28.5 -222v-369q0 -51 25.5 -87t76.5 -36q104 0 180 127t76 334 q0 362 -193.5 560t-522.5 198q-332 0 -524.5 -205t-192.5 -594t192.5 -594t524.5 -205q381 0 635 174l40 -61q-282 -195 -675 -195z" />
<glyph unicode="A" horiz-adv-x="1269" d="M1352 41v-41q-35 -10 -82 -10q-246 0 -348 266l-52 133h-573l-164 -389h-92l573 1352h62l450 -1096q49 -117 95.5 -162t130.5 -53zM584 1065l-256 -594h501z" />
<glyph unicode="B" horiz-adv-x="1239" d="M584 645h-195v-545q96 -29 195 -28q184 0 286.5 74.5t102.5 211.5q0 139 -99.5 213t-289.5 74zM389 727h195q133 0 230 72.5t97 204.5q0 135 -113.5 205.5t-254.5 70.5q-72 0 -154 -20v-533zM20 1352h533q553 0 553 -359q0 -96 -66.5 -174t-199.5 -123 q188 -29 263 -111.5t75 -215.5q0 -369 -564 -369h-409v1106q0 104 -29 154.5t-115 50.5h-41v41z" />
<glyph unicode="C" horiz-adv-x="1300" d="M1219 922h-41q-76 389 -420 389q-104 0 -189.5 -34t-155 -108.5t-108.5 -204.5t-39 -309q0 -119 29 -226t86 -195.5t154.5 -140.5t222.5 -52q285 0 461 287l41 -31q-96 -184 -232.5 -261t-331.5 -77q-287 0 -461 198.5t-174 497.5q0 307 186.5 522.5t448.5 215.5 q162 0 288 -46.5t183 -117.5q25 -29 36 -84t13.5 -98t2.5 -125z" />
<glyph unicode="D" horiz-adv-x="1423" d="M395 1247v-1149q121 -27 209 -26q231 0 383 165.5t152 438.5q0 270 -150.5 437t-388.5 167q-99 0 -205 -33zM20 1352h537q397 0 601 -176.5t204 -491.5q0 -309 -194.5 -496.5t-557.5 -187.5h-405v1106q0 104 -29 154.5t-115 50.5h-41v41z" />
<glyph unicode="E" horiz-adv-x="1198" d="M20 1352h873q174 0 174 -164v-154h-41q0 236 -256 236h-381v-533h553v-82h-553v-573h359q139 0 221 52t127 173l41 -10l-72 -195q-37 -102 -154 -102h-706v1106q0 104 -29 154.5t-115 50.5h-41v41z" />
<glyph unicode="F" horiz-adv-x="1073" d="M20 1352h818q174 0 174 -164v-154h-41q0 236 -256 236h-326v-543h463v-82h-463v-645h-184v1106q0 104 -29 154.5t-115 50.5h-41v41z" />
<glyph unicode="G" horiz-adv-x="1402" d="M758 1311q-125 0 -222.5 -52.5t-154.5 -140.5t-86 -195.5t-29 -226.5q0 -178 39 -308t108.5 -204.5t154.5 -108.5t190 -34q184 0 317 72v356q0 51 10.5 87t42 74t104.5 58.5t181 20.5v-41q-92 0 -122.5 -47.5t-30.5 -147.5v-385q-211 -129 -502 -129q-303 0 -500 213 t-197 524q0 299 174.5 498t460.5 199q176 0 304 -46.5t188 -117.5q51 -61 51 -277h-41q-78 359 -440 359z" />
<glyph unicode="H" horiz-adv-x="1392" d="M1188 1352v-1106q0 -104 28.5 -154.5t114.5 -50.5h41v-41h-184q-111 0 -147.5 47t-36.5 199v409h-615v-655h-184v1106q0 104 -29 154.5t-115 50.5h-41v41h185q111 0 147.5 -47.5t36.5 -198.5v-369h615v615h184z" />
<glyph unicode="I" horiz-adv-x="593" d="M205 246v1106h184v-1106q0 -104 28.5 -154.5t114.5 -50.5h41v-41h-184q-111 0 -147.5 47t-36.5 199z" />
<glyph unicode="J" horiz-adv-x="532" d="M10 -281v41q195 0 195 400v1192h184v-1192q0 -238 -81 -339.5t-298 -101.5z" />
<glyph unicode="K" horiz-adv-x="1331" d="M20 1352h185q111 0 147.5 -47.5t36.5 -198.5v-399l430 430l49 50q37 38 52.5 52t49.5 42t58.5 39t62 21.5t76.5 10.5h103v-52q-86 0 -149.5 -29.5t-147.5 -113.5l-400 -399l471 -492q199 -209 349 -227v-39q-61 -20 -133 -20q-207 0 -441 245l-430 451v-676h-184v1106 q0 104 -29 154.5t-115 50.5h-41v41z" />
<glyph unicode="L" horiz-adv-x="1095" d="M389 1106v-1024h727v-82h-911v1106q0 104 -29 154.5t-115 50.5h-41v41h185q111 0 147.5 -47t36.5 -199z" />
<glyph unicode="M" horiz-adv-x="1761" d="M1751 -51v-41q-217 0 -298 101.5t-81 338.5v789l-512 -1137h-41l-532 1157v-1157h-82v1352h194l492 -1065l481 1065h184v-1004q0 -399 195 -399z" />
<glyph unicode="N" horiz-adv-x="1351" d="M205 0v1106q0 100 -41 152.5t-144 52.5h-20v41h133q176 0 277 -123l716 -891v1014h82v-1372h-41l-880 1095v-1075h-82z" />
<glyph unicode="O" horiz-adv-x="1392" d="M1126 676q0 293 -115.5 464t-314 171t-314.5 -171t-116 -464t116 -464t314.5 -171t314 171t115.5 464zM61 676q0 307 174.5 512t461 205t460.5 -205t174 -512t-174 -512t-460.5 -205t-461 205t-174.5 512z" />
<glyph unicode="P" horiz-adv-x="1126" d="M543 625q109 0 213 81.5t104 245.5t-104.5 246t-212.5 82q-72 0 -154 -20v-615q82 -20 154 -20zM389 553v-553h-184v1106q0 104 -29 154.5t-115 50.5h-41v41h533q63 0 120.5 -7.5t133.5 -32t129 -66.5t91 -120.5t38 -183.5q0 -98 -37 -173t-88 -115t-118.5 -64.5 t-116 -30.5t-91.5 -6h-225z" />
<glyph unicode="Q" horiz-adv-x="1392" d="M61 676q0 307 174.5 512t461 205t460.5 -205t174 -512q0 -258 -126 -448.5t-341 -245.5q45 -150 197.5 -255.5t290.5 -105.5v-41q-514 0 -840 406q-209 61 -330 249.5t-121 440.5zM1126 676q0 293 -115.5 464t-314 171t-314.5 -171t-116 -464t116 -464t314.5 -171 t314 171t115.5 464z" />
<glyph unicode="R" horiz-adv-x="1187" d="M543 696q106 0 211.5 75t105.5 212q0 100 -57.5 171t-127 98.5t-132.5 27.5q-72 0 -154 -20v-543q82 -21 154 -21zM737 276l-205 349h-143v-625h-184v1106q0 104 -29 154.5t-115 50.5h-41v41h533q61 0 120.5 -6.5t134.5 -30t128 -61t91 -107.5t38 -164q0 -279 -328 -348 l215 -359q76 -127 136.5 -177t140.5 -58v-41q-41 -20 -123 -20q-109 0 -190 64t-179 232z" />
<glyph unicode="S" horiz-adv-x="1077" d="M985 344q0 -172 -114.5 -275.5t-311.5 -103.5q-178 0 -322.5 69.5t-144.5 180.5v219h37q33 -203 134.5 -295t277.5 -92q113 0 190.5 56.5t77.5 152.5q0 86 -53.5 149.5t-171.5 133.5l-252 149q-131 76 -185.5 157t-54.5 195q0 158 108.5 253.5t288.5 95.5 q166 0 304.5 -69t138.5 -177v-219h-37q-33 203 -131 293t-275 90q-94 0 -165.5 -57.5t-71.5 -149.5q0 -84 52 -139.5t175 -129.5l252 -149q137 -80 195.5 -154.5t58.5 -183.5z" />
<glyph unicode="T" horiz-adv-x="1126" d="M174 1352h952v-82h-460v-1270h-185v1270h-184q-256 0 -256 -236h-41v154q0 164 174 164z" />
<glyph unicode="U" horiz-adv-x="1392" d="M205 584v522q0 104 -29 154.5t-115 50.5h-41v41h185q111 0 147.5 -47.5t36.5 -198.5v-584q0 -227 84 -344t279 -117q229 0 322 123t93 400v768h82v-768q0 -317 -110.5 -460.5t-411.5 -143.5q-289 0 -405.5 146.5t-116.5 457.5z" />
<glyph unicode="V" horiz-adv-x="1345" d="M385 1112l350 -825l451 1065h98l-588 -1372h-37l-475 1132q-49 117 -95 162t-130 53v41q4 0 31.5 2t38.5 2q250 0 356 -260z" />
<glyph unicode="W" horiz-adv-x="1792" d="M582 -20l-398 1132q-41 119 -87 163t-138 52v41q4 0 31.5 2t38.5 2q72 0 126 -13t119.5 -74.5t104.5 -172.5l274 -790l219 649l-49 141q-41 119 -87 163t-138 52v41q4 0 31.5 2t38.5 2q72 0 126 -13t119.5 -74.5t104.5 -172.5l274 -790l350 1030h89l-469 -1372h-41 l-303 862l-295 -862h-41z" />
<glyph unicode="X" horiz-adv-x="1310" d="M625 594l-461 -594h-103l512 666l-286 419q-49 72 -78 107t-96.5 75t-153.5 44v41h246q47 0 89 -18.5t80 -58.5t60.5 -68.5t57.5 -80.5l204 -307l410 533h102l-460 -604l327 -482q145 -213 297 -225v-41h-215q-61 0 -119.5 39t-90.5 79t-77 107z" />
<glyph unicode="Y" horiz-adv-x="1288" d="M430 1126l297 -460l428 686h92l-479 -779v-573h-184v559l-348 526q-74 111 -136.5 165.5t-160.5 60.5v41h184q102 0 170.5 -58.5t136.5 -167.5z" />
<glyph unicode="Z" horiz-adv-x="1249" d="M297 1352h891l-871 -1270h840v-82h-1096v41l850 1229h-491q-256 0 -256 -236h-41v154q0 164 174 164z" />
<glyph unicode="[" horiz-adv-x="542" d="M522 -328v-82h-440v1803h440v-82h-276v-1639h276z" />
<glyph unicode="\" horiz-adv-x="808" d="M788 -51l-71 -31l-697 1516l72 30z" />
<glyph unicode="]" horiz-adv-x="542" d="M20 -410v82h277v1639h-277v82h441v-1803h-441z" />
<glyph unicode="^" horiz-adv-x="1003" d="M41 676l440 717h41l441 -717h-93l-368 594l-369 -594h-92z" />
<glyph unicode="_" horiz-adv-x="819" d="M819 -348v-82h-819v82h819z" />
<glyph unicode="`" horiz-adv-x="450" d="M246 983l-226 410h205l123 -410h-102z" />
<glyph unicode="a" horiz-adv-x="993" d="M666 195v276h-62q-152 0 -240 -56.5t-88 -148.5q0 -94 56.5 -144t138.5 -50q113 0 195 123zM850 0h-102l-72 92h-10q-90 -113 -287 -112q-47 0 -95 14t-95.5 44t-77 89t-29.5 139q0 287 522 287h62q0 201 -55.5 274.5t-159.5 73.5q-184 0 -226 -174h-92q0 47 2 70.5 t13.5 56.5t35.5 57q72 72 308 72q78 0 135 -16.5t111.5 -59.5t83 -132t28.5 -222v-553z" />
<glyph unicode="b" horiz-adv-x="1075" d="M348 840v-656q82 -123 215 -123q117 0 176.5 116t59.5 304q0 190 -62.5 305t-193.5 115q-72 0 -195 -61zM164 0v1106q0 104 -29 154.5t-115 50.5h-40v41h184q111 0 147.5 -47.5t36.5 -198.5v-184q123 61 256 61q190 0 289.5 -141.5t99.5 -360.5t-96 -360t-272 -141 q-186 0 -277 112h-10l-72 -92h-102z" />
<glyph unicode="c" horiz-adv-x="931" d="M512 983q225 0 297 -72q35 -35 43 -85t8 -181h-41q-8 125 -80.5 190.5t-185.5 65.5q-147 0 -222 -116.5t-75 -303t75 -303.5t222 -117q102 0 171 41t126 123l41 -30q-129 -215 -379 -215q-221 0 -336 141t-115 360t115 360.5t336 141.5z" />
<glyph unicode="d" horiz-adv-x="1075" d="M727 184v656q-123 61 -195 61q-131 0 -193.5 -114.5t-62.5 -305.5q0 -188 59.5 -304t176.5 -116q82 0 129 33t86 90zM911 1106v-1106h-102l-72 92h-10q-90 -113 -276 -112q-176 0 -272.5 141t-96.5 360t99.5 360.5t289.5 141.5q133 0 256 -61v184q0 104 -28.5 154.5 t-114.5 50.5h-41v41h184q111 0 147.5 -47t36.5 -199z" />
<glyph unicode="e" horiz-adv-x="972" d="M891 532l-4 -81h-611q0 -172 74 -281t203 -109q172 0 287 164l41 -30q-129 -215 -369 -215q-207 0 -318.5 141t-111.5 360q0 215 106.5 358.5t292.5 143.5q205 0 307.5 -116t102.5 -335zM276 532h431q0 172 -54.5 265.5t-160.5 93.5q-92 0 -154 -102.5t-62 -256.5z" />
<glyph unicode="f" horiz-adv-x="727" d="M512 1290q-164 0 -164 -266v-61h287v-82h-287v-881h-184v881h-144v82h144v61q0 348 358 348q129 0 174 -31q39 -27 72 -92l-61 -51q-62 92 -195 92z" />
<glyph unicode="g" horiz-adv-x="983" d="M102 676q0 307 390 307h378v-51l-133 -21v-10q63 -33 103.5 -92t40.5 -133q0 -307 -389 -307q-215 0 -215.5 -72t215.5 -72q199 0 324.5 -78.5t125.5 -238.5q0 -317 -450.5 -317.5t-450.5 317.5q0 94 63.5 163.5t161.5 102.5q-82 41 -82 123q0 66 72 113 q-66 33 -110 102.5t-44 163.5zM512 143l-113 11q-174 -70 -174 -246q0 -119 73 -177.5t193.5 -58.5t193.5 58.5t73 177.5q0 204 -246 235zM696 676q0 117 -57 176t-147 59q-92 0 -148.5 -56t-56.5 -179t56 -179.5t148.5 -56.5t148.5 56.5t56 179.5z" />
<glyph unicode="h" horiz-adv-x="1105" d="M348 1106v-225q102 102 266 102q348 0 349 -369v-614h-185v614q0 143 -64.5 210t-160.5 67q-109 0 -205 -109v-782h-184v1106q0 104 -29 154.5t-115 50.5h-40v41h184q111 0 147.5 -47t36.5 -199z" />
<glyph unicode="i" d="M348 717v-717h-184v717q0 104 -29 154.5t-115 50.5h-40v41h184q111 0 147.5 -47t36.5 -199zM336 1178q0 -43 -25.5 -68t-68.5 -25q-47 0 -81 39t-34 93q0 43 25.5 67.5t68.5 24.5q47 0 81 -39t34 -92z" />
<glyph unicode="j" d="M164 51v666q0 104 -29 154.5t-115 50.5h-40v41h184q111 0 147.5 -47.5t36.5 -198.5v-666q0 -238 -81 -339t-298 -101v41q195 0 195 399zM336 1178q0 -43 -25.5 -68t-68.5 -25q-47 0 -81 39t-34 93q0 43 25.5 67.5t68.5 24.5q47 0 81 -39t34 -92z" />
<glyph unicode="k" horiz-adv-x="972" d="M348 1106v-604l256 327q102 133 266 134h62v-52q-121 0 -195 -92l-225 -287l256 -327q117 -150 225 -166v-39q-41 -20 -102 -20q-174 0 -297 163l-246 328v-471h-184v1106q0 104 -29 154.5t-115 50.5h-40v41h184q111 0 147.5 -47t36.5 -199z" />
<glyph unicode="l" d="M348 1106v-1106h-184v1106q0 104 -29 154.5t-115 50.5h-40v41h184q111 0 147.5 -47t36.5 -199z" />
<glyph unicode="m" horiz-adv-x="1597" d="M338 881h10q102 102 266 102q180 0 246 -143q53 68 137 105.5t170 37.5q131 0 209 -82t78 -287v-614h-184v614q0 276 -164 277q-57 0 -118.5 -41t-96.5 -92q10 -31 10 -144v-614h-184v614q0 276 -164 277q-109 0 -205 -109v-782h-184v717q0 104 -29 154.5t-115 50.5h-40 v41h184q141 0 174 -82z" />
<glyph unicode="n" horiz-adv-x="1105" d="M164 0v717q0 104 -29 154.5t-115 50.5h-40v41h184q141 0 174 -82h10q102 102 266 102q348 0 349 -369v-614h-185v614q0 143 -64.5 210t-160.5 67q-109 0 -205 -109v-782h-184z" />
<glyph unicode="o" horiz-adv-x="1024" d="M768 481.5q0 180.5 -71.5 300t-184.5 119.5t-184.5 -119.5t-71.5 -300t71.5 -300.5t184.5 -120t184.5 120t71.5 300.5zM61 481q0 215 121 358.5t330 143.5t330 -143.5t121 -358.5t-121 -358t-330 -143t-330 143t-121 358z" />
<glyph unicode="p" horiz-adv-x="1075" d="M348 778v-655q123 -61 195 -62q131 0 193.5 115t62.5 305q0 188 -59.5 304t-176.5 116q-133 0 -215 -123zM164 -389v1106q0 104 -29 154.5t-115 50.5h-40v41h184q143 0 174 -93h10q90 113 277 113q176 0 272 -141.5t96 -360.5t-99 -360t-290 -141q-133 0 -256 61v-430 h-184z" />
<glyph unicode="q" horiz-adv-x="1075" d="M727 123v655q-82 123 -215 123q-117 0 -176.5 -115.5t-59.5 -304.5q0 -190 62.5 -305t193.5 -115q72 1 195 62zM727 -389v430q-123 -61 -256 -61q-190 0 -289.5 141t-99.5 360t96 360.5t273 141.5q186 0 276 -113h10l72 93h102v-1352h-184z" />
<glyph unicode="r" horiz-adv-x="829" d="M164 0v717q0 104 -29 154.5t-115 50.5h-20v41h164q143 0 174 -93h10q90 113 246 113q78 0 123 -31q39 -27 71 -92l-81 -61q-47 61 -164 61q-127 0 -195 -102v-758h-184z" />
<glyph unicode="s" horiz-adv-x="890" d="M809 246q0 -127 -99.5 -196.5t-258.5 -69.5q-236 0 -318 81q-25 25 -36 59t-13 63.5t-2 92.5h41q33 -215 287 -215q111 0 168 40t57 104q0 59 -44 102t-140 82l-123 51q-123 51 -184.5 116t-61.5 161q0 127 93 196.5t245 69.5q225 0 307 -82q25 -25 36 -58.5t13 -63 t2 -93.5h-41q-16 102 -85.5 158.5t-190.5 56.5q-96 0 -150.5 -40t-54.5 -103q0 -104 164 -174l123 -52q139 -57 202.5 -120.5t63.5 -165.5z" />
<glyph unicode="t" horiz-adv-x="686" d="M164 246v635h-144v82h144v184l102 123h82v-307h246v-82h-246v-635q0 -184 144 -185q72 0 153 41l21 -41q-109 -82 -256 -81q-113 0 -179.5 66.5t-66.5 199.5z" />
<glyph unicode="u" horiz-adv-x="1105" d="M942 963v-963h-102l-72 82h-10q-102 -102 -266 -102q-348 0 -349 368v369q0 104 -28.5 154.5t-114.5 50.5h-20v41h163q111 0 148 -47.5t37 -198.5v-369q0 -143 64.5 -209.5t160.5 -66.5q109 0 205 108v783h184z" />
<glyph unicode="v" horiz-adv-x="970" d="M356 727l185 -440l286 676h103l-420 -983h-41l-317 747q-49 117 -94.5 162t-118.5 49v41q4 0 31.5 2t37.5 2q237 0 348 -256z" />
<glyph unicode="w" horiz-adv-x="1484" d="M901 727l174 -430l266 666h103l-400 -983h-40l-256 634l-256 -634h-41l-297 747q-45 115 -92.5 161t-122.5 50v41q4 0 32.5 2t38.5 2q236 0 338 -256l174 -430l174 440q-47 109 -91 153t-113 48v41q4 0 32.5 2t38.5 2q236 0 338 -256z" />
<glyph unicode="x" horiz-adv-x="921" d="M537 164l-127 215l-267 -379h-102l328 461l-179 297q-86 147 -210 164v41h174q135 0 231 -164l127 -215l266 379h103l-328 -461l178 -297q86 -150 221 -164v-41h-184q-135 0 -231 164z" />
<glyph unicode="y" horiz-adv-x="993" d="M440 -133l41 113l-317 798q-59 147 -225 164v41h174q180 0 245 -164l226 -563l266 707h102l-409 -1096q-59 -162 -131 -219.5t-187 -57.5h-61v62q100 0 165.5 46t110.5 169z" />
<glyph unicode="z" horiz-adv-x="921" d="M236 963h624l-553 -881h553v-82h-799v39l533 842h-236q-127 0 -191.5 -49.5t-64.5 -135.5h-41v103q1 164 175 164z" />
<glyph unicode="{" horiz-adv-x="624" d="M41 461v61q205 27 205 236v286q0 143 78.5 233.5t259.5 135.5v-61q-102 -29 -138 -79t-36 -147v-348q0 -121 -52.5 -188.5t-162.5 -97.5q111 -31 163 -98.5t52 -188.5v-348q0 -96 35.5 -146.5t138.5 -79.5v-61q-180 45 -259 135t-79 234v286q0 209 -205 236z" />
<glyph unicode="|" horiz-adv-x="491" d="M205 1393h82v-1782h-82v1782z" />
<glyph unicode="}" horiz-adv-x="583" d="M543 522v-61q-205 -27 -205 -236v-286q0 -143 -79 -233.5t-259 -135.5v61q102 29 138 79t36 147v348q0 121 52.5 188.5t162.5 98.5q-111 31 -163 98t-52 188v348q0 96 -36 146.5t-138 79.5v61q180 -45 259 -135t79 -234v-286q0 -209 205 -236z" />
<glyph unicode="~" horiz-adv-x="1208" d="M881 369q-106 0 -290.5 81.5t-262.5 81.5q-76 0 -120 -39.5t-44 -103.5h-82q0 143 71.5 215t174.5 72q106 0 290.5 -82t262.5 -82q76 0 119.5 40t43.5 103h82q0 -143 -71.5 -214.5t-173.5 -71.5z" />
<glyph unicode="&#xa0;" />
<glyph unicode="&#xa1;" horiz-adv-x="548" d="M334 637l37 -1034h-193l37 1034h119zM274 762q-45 0 -77.5 31.5t-32.5 76.5q0 47 32.5 80t77.5 33t78 -32.5t33 -80.5q0 -45 -33 -76.5t-78 -31.5z" />
<glyph unicode="&#xa2;" horiz-adv-x="931" d="M471 1065h82v-82q180 0 256 -72q35 -35 43 -85t8 -181h-41q-8 125 -80.5 190.5t-185.5 65.5v-840q102 0 171 41t126 123l41 -30q-119 -199 -338 -215v-82h-82v82q-199 14 -304.5 153t-105.5 348t105.5 348.5t304.5 153.5v82zM256 481q0 -158 55.5 -268.5t159.5 -140.5 v819q-104 -31 -159.5 -142.5t-55.5 -267.5z" />
<glyph unicode="&#xa3;" horiz-adv-x="972" d="M164 737v205q0 133 28.5 222t83 132t111.5 59.5t135 16.5q236 0 307 -72q25 -25 36.5 -57.5t13.5 -56t2 -70.5h-93q-41 174 -225 174q-104 0 -159.5 -73.5t-55.5 -274.5v-205h287v-82h-287v-204q0 -272 -112 -369h378q256 0 256 235h41v-153q0 -164 -174 -164h-747v51 q88 25 131 116t43 284v204h-144v82h144z" />
<glyph unicode="&#xa4;" horiz-adv-x="1167" d="M553 717q307 8 307 287q0 145 -87 210.5t-230 65.5q-72 0 -154 -20v-543h164zM911 389l82 -174q74 -156 215 -174v-41q-41 -20 -110 -20q-209 0 -299 194l-82 174q-68 143 -225 144h-103v-492h-184v492h-123v81h123v62h-123v82h123v389q0 104 -29 154.5t-115 50.5h-41v41 h533q512 0 512 -348q0 -369 -512 -369h-164v-62h164q141 0 227 -43t131 -141z" />
<glyph unicode="&#xa5;" horiz-adv-x="1288" d="M430 1126l297 -460l428 686h92l-479 -779v-30h195v-82h-195v-82h195v-82h-195v-297h-184v297h-195v82h195v82h-195v82h195v16l-348 526q-74 111 -136.5 165.5t-160.5 60.5v41h184q102 0 170.5 -58.5t136.5 -167.5z" />
<glyph unicode="&#xa6;" horiz-adv-x="491" d="M205 1393h82v-717h-82v717zM205 328h82v-717h-82v717z" />
<glyph unicode="&#xa7;" horiz-adv-x="921" d="M328 1106q0 -78 48 -140.5t118 -106.5l139 -89q70 -45 118 -112.5t48 -155.5q0 -215 -217 -297q186 -125 186 -307q0 -154 -89 -231t-228 -77q-184 0 -267 82q-25 25 -36 58.5t-13 63.5t-2 93h41q14 -100 72.5 -157.5t142.5 -57.5q94 0 149.5 47.5t55.5 137.5 q0 78 -48 140t-118 106l-139 90q-70 45 -118 112.5t-48 155.5q0 215 215 297q-184 121 -184 307q0 154 89 230.5t228 76.5q184 0 266 -82q25 -25 36 -58.5t13 -63t2 -93.5h-40q-14 100 -73 157.5t-143 57.5q-94 0 -149 -47t-55 -137zM418 711q-141 -43 -142 -189 q0 -143 228 -270q141 45 141 188.5t-227 270.5z" />
<glyph unicode="&#xa8;" horiz-adv-x="573" d="M205 1597q0 -45 -29 -73.5t-74 -28.5t-73.5 28.5t-28.5 73.5t28.5 74t73.5 29t74 -29t29 -74zM573 1597q0 -45 -28.5 -73.5t-73.5 -28.5t-73.5 28.5t-28.5 73.5t28.5 74t73.5 29t73.5 -29t28.5 -74z" />
<glyph unicode="&#xa9;" horiz-adv-x="1617" d="M809 1403q315 0 521 -206t206 -521.5t-206 -521t-521 -205.5t-521 205.5t-206 521t206 521.5t521 206zM809 31q285 0 465 180t180 465t-180 465t-465 180t-465 -180t-180 -465t180 -465t465 -180zM1149 844h-27q-47 254 -272 254q-143 0 -231.5 -101.5t-88.5 -326.5 q0 -166 81 -283t239 -117q184 0 299 187l27 -21q-115 -221 -367 -221q-184 0 -297 130t-113 325q0 201 120 341t290 140q104 0 186 -30.5t119 -76.5q35 -40 35 -200z" />
<glyph unicode="&#xaa;" horiz-adv-x="495" d="M354 928v147h-32q-82 0 -129.5 -29.5t-47.5 -80.5q0 -49 30 -77t75 -28q57 0 104 68zM455 821h-56l-39 51h-6q-49 -61 -153 -61q-59 0 -109.5 36t-50.5 118q0 156 281 155h32q0 106 -29.5 146.5t-84.5 40.5q-98 0 -121 -93h-51q0 70 28 99q37 39 164 39q90 0 142.5 -48.5 t52.5 -183.5v-299z" />
<glyph unicode="&#xab;" horiz-adv-x="675" d="M328 461l204 297h82l-122 -297l122 -297h-82zM440 860l-194 -399l194 -400h-82l-317 400l317 399h82z" />
<glyph unicode="&#xac;" horiz-adv-x="1198" d="M41 799v82h1075v-410h-82v328h-993z" />
<glyph unicode="&#xad;" horiz-adv-x="686" d="M82 471v143h522v-143h-522z" />
<glyph unicode="&#xae;" horiz-adv-x="1617" d="M809 1403q315 0 521 -206t206 -521.5t-206 -521t-521 -205.5t-521 205.5t-206 521t206 521.5t521 206zM809 31q285 0 465 180t180 465t-180 465t-465 180t-465 -180t-180 -465t180 -465t465 -180zM770 707q70 0 137.5 49t67.5 141q0 90 -67.5 139t-137.5 49 q-39 0 -100 -14v-350q61 -14 100 -14zM905 432l-137 230h-98v-406h-119v715q0 68 -18.5 100.5t-73.5 32.5h-27v26h344q41 0 79 -4t86 -19t83 -40t59.5 -71t24.5 -107q0 -182 -211 -219l147 -238q53 -82 89 -113.5t86 -37.5v-25q-23 -14 -86.5 -14t-111.5 40.5t-116 149.5z " />
<glyph unicode="&#xaf;" />
<glyph unicode="&#xb0;" horiz-adv-x="901" d="M450.5 1321q-100.5 0 -163 -64.5t-62.5 -171t62.5 -171t163 -64.5t163 64.5t62.5 171t-62.5 171t-163 64.5zM450.5 1393q139.5 0 223.5 -84t84 -223.5t-84 -223.5t-223.5 -84t-223.5 84t-84 223.5t84 223.5t223.5 84z" />
<glyph unicode="&#xb1;" horiz-adv-x="1024" d="M983 143h-942v82h430v410h-430v82h430v430h82v-430h430v-82h-430v-410h430v-82z" />
<glyph unicode="&#xb2;" horiz-adv-x="593" d="M158 809h209q117 0 116 98h19v-61q0 -74 -80 -74h-330v47l88 86q59 57 79 78l55 60q36 40 47.5 63.5t22.5 57.5t11 69q0 68 -34.5 104.5t-86.5 36.5q-57 0 -99 -42t-56 -118h-19q0 94 23 123q63 74 178 74q186 0 186 -178q0 -45 -15 -87t-53 -86t-69 -75t-94 -87z" />
<glyph unicode="&#xb3;" horiz-adv-x="604" d="M463 1356l-242 -236q33 8 84 8q37 0 77 -11t80 -55t40 -116q0 -76 -41 -123t-85 -59t-93 -12q-117 0 -201 100l12 18q74 -80 174 -79q59 0 99.5 38.5t40.5 116.5q0 68 -37 107t-84 39q-53 0 -113 -15l-22 33l241 246h-164q-117 0 -116 -101h-19v62q0 76 80 76h289v-37z " />
<glyph unicode="&#xb4;" horiz-adv-x="296" d="M297 1679l-215 -245h-82l113 245h184z" />
<glyph unicode="&#xb5;" horiz-adv-x="1146" d="M348 -389h-184v1352h184v-482q0 -188 59.5 -304t176.5 -116q133 0 215 123v779h184v-963h-102l-72 92h-10q-90 -113 -236 -112q-123 0 -215 92v-461z" />
<glyph unicode="&#xb6;" horiz-adv-x="1085" d="M512 -389v983q-205 0 -338 103.5t-133 275.5t133 275.5t338 103.5h471v-82h-133v-1659h-82v1659h-174v-1659h-82z" />
<glyph unicode="&#xb7;" />
<glyph unicode="&#xb8;" horiz-adv-x="245" d="M0 0h82v-104q164 0 164 -144q0 -78 -54.5 -110.5t-191.5 -32.5v61q92 0 128 17.5t36 64.5t-36 64.5t-128 17.5v166z" />
<glyph unicode="&#xb9;" horiz-adv-x="333" d="M211 1393v-621h-84v526l-92 -55l-15 19l144 131h47z" />
<glyph unicode="&#xba;" horiz-adv-x="653" d="M326 1374q-74 0 -101.5 -68.5t-27.5 -224.5q0 -154 27.5 -222t101.5 -68q76 0 103.5 67.5t27.5 223t-27.5 224t-103.5 68.5zM326 1411q225 0 225 -329.5t-225 -329.5q-223 0 -223 329.5t223 329.5z" />
<glyph unicode="&#xbb;" horiz-adv-x="675" d="M143 758l205 -297l-205 -297h-82l123 297l-123 297h82zM430 461l-194 399h81l318 -399l-318 -400h-81z" />
<glyph unicode="&#xbc;" horiz-adv-x="1290" d="M225 0h-92l932 1352h92zM225 0h-92l932 1352h92zM369 1393v-621h-84v526l-92 -55l-15 19l144 131h47zM1065 623v-424h84v-39h-84v-160h-84v160h-299v39l309 424h74zM737 199h244v331z" />
<glyph unicode="&#xbd;" horiz-adv-x="1290" d="M225 0h-92l932 1352h92zM225 0h-92l932 1352h92zM369 1393v-621h-84v526l-92 -55l-15 19l144 131h47zM844 37h209q117 0 116 98h19v-61q0 -74 -80 -74h-330v47l88 86q59 57 79 78l55 60q36 40 47.5 63.5t22.5 57.5t11 69q0 68 -34.5 104.5t-85.5 36.5q-57 0 -99.5 -42 t-56.5 -118h-19q0 94 23 123q63 74 178 74q186 0 187 -178q0 -45 -15.5 -87t-53.5 -86t-68.5 -75t-94.5 -87z" />
<glyph unicode="&#xbe;" horiz-adv-x="1292" d="M227 0h-92l932 1352h92zM227 0h-92l932 1352h92zM1067 623v-424h84v-39h-84v-160h-84v160h-299v39l309 424h74zM739 199h244v331zM494 1356l-242 -236q33 8 84 8q37 0 77 -11t79.5 -55t39.5 -116q0 -76 -40.5 -123t-85 -59t-93.5 -12q-117 0 -200 100l12 18 q74 -80 174 -79q59 0 99 38.5t40 116.5q0 68 -36.5 107t-84.5 39q-53 0 -112 -15l-23 33l242 246h-164q-117 0 -117 -101h-18v62q0 76 80 76h289v-37z" />
<glyph unicode="&#xbf;" horiz-adv-x="954" d="M532.5 762q-47.5 0 -80 32.5t-32.5 79.5q0 45 33.5 78t78.5 33q47 0 79 -32.5t32 -78.5q0 -47 -31.5 -79.5t-79 -32.5zM492 639h81q-2 -92 -34.5 -169t-77.5 -130l-89 -107q-44 -53 -75 -123.5t-31 -154.5q0 -147 76 -227t190 -80q125 0 217.5 91t122.5 257h41 q0 -205 -51 -266q-57 -70 -164.5 -117t-226.5 -47q-55 0 -106.5 8t-108.5 34.5t-98 67.5t-69 113t-28 166q0 82 31 152.5t78 118.5t102 99l104 92q48 42 81 100.5t35 121.5z" />
<glyph unicode="&#xc0;" horiz-adv-x="1269" d="M1352 41v-41q-35 -10 -82 -10q-246 0 -348 266l-52 133h-573l-164 -389h-92l573 1352h62l450 -1096q49 -117 95.5 -162t130.5 -53zM584 1065l-256 -594h501zM625 1434l-215 307h204l93 -307h-82z" />
<glyph unicode="&#xc1;" horiz-adv-x="1269" d="M1352 41v-41q-35 -10 -82 -10q-246 0 -348 266l-52 133h-573l-164 -389h-92l573 1352h62l450 -1096q49 -117 95.5 -162t130.5 -53zM584 1065l-256 -594h501zM891 1679l-215 -245h-82l113 245h184z" />
<glyph unicode="&#xc2;" horiz-adv-x="1269" d="M1352 41v-41q-35 -10 -82 -10q-246 0 -348 266l-52 133h-573l-164 -389h-92l573 1352h62l450 -1096q49 -117 95.5 -162t130.5 -53zM584 1065l-256 -594h501zM819 1382l-174 144l-174 -144h-82l164 215h184l164 -215h-82z" />
<glyph unicode="&#xc3;" horiz-adv-x="1269" d="M1352 41v-41q-35 -10 -82 -10q-246 0 -348 266l-52 133h-573l-164 -389h-92l573 1352h62l450 -1096q49 -117 95.5 -162t130.5 -53zM584 1065l-256 -594h501zM487 1425h-61q0 104 29.5 144.5t93.5 40.5q41 0 97 -31t97 -31q23 0 42.5 19.5t19.5 42.5h61 q0 -104 -29.5 -144.5t-93.5 -40.5q-41 0 -97 31t-97 31q-23 0 -42.5 -19.5t-19.5 -42.5z" />
<glyph unicode="&#xc4;" horiz-adv-x="1269" d="M1352 41v-41q-35 -10 -82 -10q-246 0 -348 266l-52 133h-573l-164 -389h-92l573 1352h62l450 -1096q49 -117 95.5 -162t130.5 -53zM584 1065l-256 -594h501zM922 1515.5q0 -45.5 -29 -74t-74 -28.5t-73.5 28.5t-28.5 74t28.5 74t73.5 28.5t74 -28.5t29 -74zM573 1515.5 q0 -45.5 -28.5 -74t-73.5 -28.5t-73.5 28.5t-28.5 74t28.5 74t73.5 28.5t73.5 -28.5t28.5 -74z" />
<glyph unicode="&#xc5;" horiz-adv-x="1269" d="M471 1444q0 70 52 122t122 52t122 -52.5t52 -121.5q0 -119 -112 -164l419 -1024q49 -117 95.5 -162t130.5 -53v-41q-35 -10 -82 -10q-246 0 -348 266l-52 133h-573l-164 -389h-92l543 1280q-113 45 -113 164zM584 1065l-256 -594h501zM553 1444q0 -57 51 -92h82 q51 35 51 92q0 45 -26.5 73.5t-65.5 28.5t-65.5 -28.5t-26.5 -73.5z" />
<glyph unicode="&#xc6;" horiz-adv-x="1802" d="M758 1352h739q174 0 174 -164v-154h-41q0 236 -256 236h-381v-533h553v-82h-553v-573h359q139 0 221 52t127 173l41 -10l-72 -195q-37 -102 -153 -102h-707v389h-492l-215 -389h-102zM809 1260l-440 -789h440v789z" />
<glyph unicode="&#xc7;" horiz-adv-x="1300" d="M1219 922h-41q-76 389 -420 389q-104 0 -189.5 -34t-155 -108.5t-108.5 -204.5t-39 -309q0 -119 29 -226t86 -195.5t154.5 -140.5t222.5 -52q285 0 461 287l41 -31q-92 -174 -219.5 -252t-303.5 -86v-63q164 0 164 -144q0 -78 -54 -110.5t-192 -32.5v61q92 0 128 17.5 t36 64.5t-35.5 64.5t-128.5 17.5v125q-270 14 -432 211t-162 485q0 307 186.5 522.5t448.5 215.5q162 0 288 -46.5t183 -117.5q25 -29 36 -84t13.5 -98t2.5 -125z" />
<glyph unicode="&#xc8;" horiz-adv-x="1198" d="M20 1352h873q174 0 174 -164v-154h-41q0 236 -256 236h-381v-533h553v-82h-553v-573h359q139 0 221 52t127 173l41 -10l-72 -195q-37 -102 -154 -102h-706v1106q0 104 -29 154.5t-115 50.5h-41v41zM594 1434l-215 307h205l92 -307h-82z" />
<glyph unicode="&#xc9;" horiz-adv-x="1198" d="M20 1352h873q174 0 174 -164v-154h-41q0 236 -256 236h-381v-533h553v-82h-553v-573h359q139 0 221 52t127 173l41 -10l-72 -195q-37 -102 -154 -102h-706v1106q0 104 -29 154.5t-115 50.5h-41v41zM850 1679l-215 -245h-82l113 245h184z" />
<glyph unicode="&#xca;" horiz-adv-x="1198" d="M20 1352h873q174 0 174 -164v-154h-41q0 236 -256 236h-381v-533h553v-82h-553v-573h359q139 0 221 52t127 173l41 -10l-72 -195q-37 -102 -154 -102h-706v1106q0 104 -29 154.5t-115 50.5h-41v41zM758 1454l-174 143l-174 -143h-82l164 215h184l164 -215h-82z" />
<glyph unicode="&#xcb;" horiz-adv-x="1198" d="M502 1597q0 -45 -28 -73.5t-75 -28.5t-74.5 28.5t-27.5 73.5t27.5 74t74.5 29t75 -29t28 -74zM870 1597q0 -45 -27.5 -73.5t-74.5 -28.5t-74.5 28.5t-27.5 73.5t27.5 74t74.5 29t74.5 -29t27.5 -74zM20 1352h873q174 0 174 -164v-154h-41q0 236 -256 236h-381v-533h553 v-82h-553v-573h359q139 0 221 52t127 173l41 -10l-72 -195q-37 -102 -154 -102h-706v1106q0 104 -29 154.5t-115 50.5h-41v41z" />
<glyph unicode="&#xcc;" horiz-adv-x="593" d="M205 246v1106h184v-1106q0 -104 28.5 -154.5t114.5 -50.5h41v-41h-184q-111 0 -147.5 47t-36.5 199zM287 1434l-215 307h204l93 -307h-82z" />
<glyph unicode="&#xcd;" horiz-adv-x="593" d="M205 246v1106h184v-1106q0 -104 28.5 -154.5t114.5 -50.5h41v-41h-184q-111 0 -147.5 47t-36.5 199zM543 1679l-215 -245h-82l112 245h185z" />
<glyph unicode="&#xce;" horiz-adv-x="593" d="M205 246v1106h184v-1106q0 -104 28.5 -154.5t114.5 -50.5h41v-41h-184q-111 0 -147.5 47t-36.5 199zM471 1403l-174 143l-174 -143h-82l164 215h184l164 -215h-82z" />
<glyph unicode="&#xcf;" horiz-adv-x="593" d="M205 246v1106h184v-1106q0 -104 28.5 -154.5t114.5 -50.5h41v-41h-184q-111 0 -147.5 47t-36.5 199zM557 1567q0 -47 -28.5 -75t-73.5 -28t-74 28t-29 75t29 74.5t74 27.5t73.5 -27.5t28.5 -74.5zM242 1567q0 -47 -29 -75t-74 -28t-73.5 28t-28.5 75t28.5 74.5t73.5 27.5 t74 -27.5t29 -74.5z" />
<glyph unicode="&#xd0;" horiz-adv-x="1423" d="M51 635v82h154v389q0 104 -29 154.5t-115 50.5h-41v41h537q397 0 601 -176.5t204 -491.5q0 -309 -194.5 -496.5t-557.5 -187.5h-405v635h-154zM395 1247v-530h178v-82h-178v-537q121 -27 209 -26q231 0 383 165.5t152 438.5q0 270 -150.5 437t-388.5 167q-99 0 -205 -33z " />
<glyph unicode="&#xd1;" horiz-adv-x="1413" d="M205 0v1106q0 100 -41 152.5t-144 52.5h-20v41h133q176 0 277 -123l716 -891v1014h82v-1372h-41l-880 1095v-1075h-82zM547 1403h-62q0 104 30 144t93 40q41 0 97.5 -30.5t97.5 -30.5q23 0 42 19.5t19 41.5h62q0 -104 -30 -144t-93 -40q-41 0 -97.5 30.5t-97.5 30.5 q-23 0 -42 -19t-19 -42z" />
<glyph unicode="&#xd2;" horiz-adv-x="1392" d="M1126 676q0 293 -115.5 464t-314 171t-314.5 -171t-116 -464t116 -464t314.5 -171t314 171t115.5 464zM61 676q0 307 174.5 512t461 205t460.5 -205t174 -512t-174 -512t-460.5 -205t-461 205t-174.5 512zM655 1475l-215 307h205l92 -307h-82z" />
<glyph unicode="&#xd3;" horiz-adv-x="1392" d="M1126 676q0 293 -115.5 464t-314 171t-314.5 -171t-116 -464t116 -464t314.5 -171t314 171t115.5 464zM61 676q0 307 174.5 512t461 205t460.5 -205t174 -512t-174 -512t-460.5 -205t-461 205t-174.5 512zM911 1720l-215 -245h-82l113 245h184z" />
<glyph unicode="&#xd4;" horiz-adv-x="1392" d="M1126 676q0 293 -115.5 464t-314 171t-314.5 -171t-116 -464t116 -464t314.5 -171t314 171t115.5 464zM61 676q0 307 174.5 512t461 205t460.5 -205t174 -512t-174 -512t-460.5 -205t-461 205t-174.5 512zM870 1454l-174 143l-174 -143h-82l164 215h184l164 -215h-82z " />
<glyph unicode="&#xd5;" horiz-adv-x="1392" d="M1126 676q0 293 -115.5 464t-314 171t-314.5 -171t-116 -464t116 -464t314.5 -171t314 171t115.5 464zM61 676q0 307 174.5 512t461 205t460.5 -205t174 -512t-174 -512t-460.5 -205t-461 205t-174.5 512zM537 1491h-62q0 104 30 144t93 40q41 0 97.5 -30.5t97.5 -30.5 q23 0 42 19.5t19 41.5h61q0 -104 -29.5 -144t-92.5 -40q-41 0 -97.5 30.5t-97.5 30.5q-23 0 -42 -19t-19 -42z" />
<glyph unicode="&#xd6;" horiz-adv-x="1392" d="M1126 676q0 293 -115.5 464t-314 171t-314.5 -171t-116 -464t116 -464t314.5 -171t314 171t115.5 464zM61 676q0 307 174.5 512t461 205t460.5 -205t174 -512t-174 -512t-460.5 -205t-461 205t-174.5 512zM973 1587q0 -47 -27.5 -74.5t-75 -27.5t-75 27.5t-27.5 74.5 t27.5 75t75 28t75 -28t27.5 -75zM625 1587q0 -47 -28 -74.5t-75 -27.5t-74.5 27.5t-27.5 74.5t27.5 75t74.5 28t75 -28t28 -75z" />
<glyph unicode="&#xd7;" horiz-adv-x="1032" d="M821 315l-305 303l-303 -303l-59 58l305 303l-305 305l59 57l303 -303l305 303l58 -57l-306 -305l306 -303z" />
<glyph unicode="&#xd8;" horiz-adv-x="1392" d="M385 -82l-72 31l47 104q-141 92 -220 256t-79 367q0 307 174.5 512t460.5 205q139 0 256 -54l58 125l71 -30l-59 -131q145 -90 227 -256t82 -371q0 -307 -174 -512t-461 -205q-143 0 -266 55zM1126 676q0 346 -157 516l-494 -1079q94 -72 221 -72q199 0 314.5 171 t115.5 464zM266 676q0 -334 148 -508l495 1077q-94 66 -213 66q-199 0 -314.5 -171t-115.5 -464z" />
<glyph unicode="&#xd9;" horiz-adv-x="1454" d="M205 584v522q0 104 -29 154.5t-115 50.5h-41v41h185q111 0 147.5 -47.5t36.5 -198.5v-584q0 -227 84 -344t279 -117q229 0 322 123t93 400v768h82v-768q0 -317 -110.5 -460.5t-411.5 -143.5q-289 0 -405.5 146.5t-116.5 457.5zM758 1393l-215 307h205l92 -307h-82z" />
<glyph unicode="&#xda;" horiz-adv-x="1454" d="M205 584v522q0 104 -29 154.5t-115 50.5h-41v41h185q111 0 147.5 -47.5t36.5 -198.5v-584q0 -227 84 -344t279 -117q229 0 322 123t93 400v768h82v-768q0 -317 -110.5 -460.5t-411.5 -143.5q-289 0 -405.5 146.5t-116.5 457.5zM952 1638l-215 -245h-82l113 245h184z" />
<glyph unicode="&#xdb;" horiz-adv-x="1454" d="M205 584v522q0 104 -29 154.5t-115 50.5h-41v41h185q111 0 147.5 -47.5t36.5 -198.5v-584q0 -227 84 -344t279 -117q229 0 322 123t93 400v768h82v-768q0 -317 -110.5 -460.5t-411.5 -143.5q-289 0 -405.5 146.5t-116.5 457.5zM952 1372l-174 144l-174 -144h-82l164 215 h184l164 -215h-82z" />
<glyph unicode="&#xdc;" horiz-adv-x="1454" d="M205 584v522q0 104 -29 154.5t-115 50.5h-41v41h185q111 0 147.5 -47.5t36.5 -198.5v-584q0 -227 84 -344t279 -117q229 0 322 123t93 400v768h82v-768q0 -317 -110.5 -460.5t-411.5 -143.5q-289 0 -405.5 146.5t-116.5 457.5zM1055 1495q0 -45 -28 -73.5t-75 -28.5 t-74.5 28.5t-27.5 73.5t27.5 73.5t74.5 28.5t75 -28.5t28 -73.5zM707 1495q0 -45 -28 -73.5t-75 -28.5t-74.5 28.5t-27.5 73.5t27.5 73.5t74.5 28.5t75 -28.5t28 -73.5z" />
<glyph unicode="&#xdd;" horiz-adv-x="1288" d="M430 1126l297 -460l428 686h92l-479 -779v-573h-184v559l-348 526q-74 111 -136.5 165.5t-160.5 60.5v41h184q102 0 170.5 -58.5t136.5 -167.5zM932 1638l-215 -245h-82l113 245h184z" />
<glyph unicode="&#xde;" horiz-adv-x="1085" d="M819 645q0 186 -104.5 292.5t-325.5 106.5v-798q221 0 325.5 106.5t104.5 292.5zM389 1229v-103q309 0 472 -121.5t163 -359t-163 -359.5t-472 -122v-225h-184v1290q0 78 -33 110.5t-111 32.5h-41v41h185q106 0 145 -39t39 -145z" />
<glyph unicode="&#xdf;" horiz-adv-x="1116" d="M737 1126q0 164 -184 164q-104 0 -154.5 -59.5t-50.5 -206.5v-1024h-184v1024q0 104 30.5 175t89 107.5t125 51t154.5 14.5q166 0 257 -56t91 -149q0 -76 -36.5 -133t-80.5 -86.5t-81 -79t-37 -111t43 -111.5t105 -87l124 -77q61 -40 104.5 -100t43.5 -136 q0 -133 -80 -199.5t-217 -66.5q-174 0 -256 81q-51 51 -51 164h40q8 -63 73 -113.5t153 -50.5q76 0 120 40t44 104q0 61 -43 111.5t-105 86.5l-124 77q-62 40 -105 100.5t-43 136.5t36.5 133t81 87t81 79t36.5 110z" />
<glyph unicode="&#xe0;" horiz-adv-x="993" d="M666 195v276h-62q-152 0 -240 -56.5t-88 -148.5q0 -94 56.5 -144t138.5 -50q113 0 195 123zM850 0h-102l-72 92h-10q-90 -113 -287 -112q-47 0 -95 14t-95.5 44t-77 89t-29.5 139q0 287 522 287h62q0 201 -55.5 274.5t-159.5 73.5q-184 0 -226 -174h-92q0 47 2 70.5 t13.5 56.5t35.5 57q72 72 308 72q78 0 135 -16.5t111.5 -59.5t83 -132t28.5 -222v-553zM471 1075l-215 307h205l92 -307h-82z" />
<glyph unicode="&#xe1;" horiz-adv-x="993" d="M666 195v276h-62q-152 0 -240 -56.5t-88 -148.5q0 -94 56.5 -144t138.5 -50q113 0 195 123zM850 0h-102l-72 92h-10q-90 -113 -287 -112q-47 0 -95 14t-95.5 44t-77 89t-29.5 139q0 287 522 287h62q0 201 -55.5 274.5t-159.5 73.5q-184 0 -226 -174h-92q0 47 2 70.5 t13.5 56.5t35.5 57q72 72 308 72q78 0 135 -16.5t111.5 -59.5t83 -132t28.5 -222v-553zM717 1321l-215 -246h-82l112 246h185z" />
<glyph unicode="&#xe2;" horiz-adv-x="993" d="M666 195v276h-62q-152 0 -240 -56.5t-88 -148.5q0 -94 56.5 -144t138.5 -50q113 0 195 123zM850 0h-102l-72 92h-10q-90 -113 -287 -112q-47 0 -95 14t-95.5 44t-77 89t-29.5 139q0 287 522 287h62q0 201 -55.5 274.5t-159.5 73.5q-184 0 -226 -174h-92q0 47 2 70.5 t13.5 56.5t35.5 57q72 72 308 72q78 0 135 -16.5t111.5 -59.5t83 -132t28.5 -222v-553zM666 1065l-174 143l-175 -143h-81l163 215h185l164 -215h-82z" />
<glyph unicode="&#xe3;" horiz-adv-x="993" d="M666 195v276h-62q-152 0 -240 -56.5t-88 -148.5q0 -94 56.5 -144t138.5 -50q113 0 195 123zM850 0h-102l-72 92h-10q-90 -113 -287 -112q-47 0 -95 14t-95.5 44t-77 89t-29.5 139q0 287 522 287h62q0 201 -55.5 274.5t-159.5 73.5q-184 0 -226 -174h-92q0 47 2 70.5 t13.5 56.5t35.5 57q72 72 308 72q78 0 135 -16.5t111.5 -59.5t83 -132t28.5 -222v-553zM328 1096h-62q0 104 30 144t93 40q41 0 97.5 -30.5t97.5 -30.5q23 0 42 19t19 42h62q0 -104 -30 -144t-93 -40q-41 0 -97.5 30.5t-97.5 30.5q-23 0 -42 -19t-19 -42z" />
<glyph unicode="&#xe4;" horiz-adv-x="993" d="M666 195v276h-62q-152 0 -240 -56.5t-88 -148.5q0 -94 56.5 -144t138.5 -50q113 0 195 123zM850 0h-102l-72 92h-10q-90 -113 -287 -112q-47 0 -95 14t-95.5 44t-77 89t-29.5 139q0 287 522 287h62q0 201 -55.5 274.5t-159.5 73.5q-184 0 -226 -174h-92q0 47 2 70.5 t13.5 56.5t35.5 57q72 72 308 72q78 0 135 -16.5t111.5 -59.5t83 -132t28.5 -222v-553zM737 1188q0 -39 -26.5 -65.5t-65.5 -26.5t-65.5 26.5t-26.5 65.5t26.5 65.5t65.5 26.5t65.5 -26.5t26.5 -65.5zM389 1188q0 -39 -26.5 -65.5t-65.5 -26.5t-65.5 26.5t-26.5 65.5 t26.5 65.5t65.5 26.5t65.5 -26.5t26.5 -65.5z" />
<glyph unicode="&#xe5;" horiz-adv-x="993" d="M666 195v276h-62q-152 0 -240 -56.5t-88 -148.5q0 -94 56.5 -144t138.5 -50q113 0 195 123zM850 0h-102l-72 92h-10q-90 -113 -287 -112q-47 0 -95 14t-95.5 44t-77 89t-29.5 139q0 287 522 287h62q0 201 -55.5 274.5t-159.5 73.5q-184 0 -226 -174h-92q0 47 2 70.5 t13.5 56.5t35.5 57q72 72 308 72q78 0 135 -16.5t111.5 -59.5t83 -132t28.5 -222v-553zM307 1259.5q0 69.5 52.5 122t122 52.5t121.5 -52.5t52 -122t-52 -122t-121.5 -52.5t-122 52.5t-52.5 122zM573 1259.5q0 45.5 -26.5 74t-65.5 28.5t-65.5 -28.5t-26.5 -74t26.5 -74 t65.5 -28.5t65.5 28.5t26.5 74z" />
<glyph unicode="&#xe6;" horiz-adv-x="1546" d="M1464 532l-4 -81h-610q0 -172 73.5 -281t202.5 -109q172 0 287 164l41 -30q-129 -215 -369 -215q-238 0 -348 174q-49 -88 -123.5 -131t-203.5 -43q-131 0 -229.5 65.5t-98.5 210.5q0 276 522 276h62q0 213 -55.5 291t-159.5 78q-184 0 -226 -174h-92q0 47 2 70.5 t13.5 56.5t35.5 57q72 72 308 72q102 0 177.5 -52t108.5 -132q33 80 106.5 132t170.5 52q205 0 307 -116t102 -335zM850 532h430q0 172 -54.5 265.5t-160.5 93.5q-92 0 -153.5 -102.5t-61.5 -256.5zM666 195v256h-62q-152 0 -240 -54.5t-88 -140.5q0 -88 56.5 -136 t138.5 -48q113 0 195 123z" />
<glyph unicode="&#xe7;" horiz-adv-x="931" d="M512 983q225 0 297 -72q35 -35 43 -85t8 -181h-41q-8 125 -80.5 190.5t-185.5 65.5q-147 0 -222 -116.5t-75 -303t75 -303.5t222 -117q102 0 171 41t126 123l41 -30q-119 -199 -359 -215v-64q164 -6 164 -143q0 -78 -54 -111t-191 -33v62q92 0 127.5 17.5t35.5 64.5 t-35.5 64.5t-127.5 17.5v125q-190 23 -290 161t-100 340q0 219 115 360.5t336 141.5z" />
<glyph unicode="&#xe8;" horiz-adv-x="972" d="M891 532l-4 -81h-611q0 -172 74 -281t203 -109q172 0 287 164l41 -30q-129 -215 -369 -215q-207 0 -318.5 141t-111.5 360q0 215 106.5 358.5t292.5 143.5q205 0 307.5 -116t102.5 -335zM276 532h431q0 172 -54.5 265.5t-160.5 93.5q-92 0 -154 -102.5t-62 -256.5z M451 1075l-215 307h204l92 -307h-81z" />
<glyph unicode="&#xe9;" horiz-adv-x="972" d="M891 532l-4 -81h-611q0 -172 74 -281t203 -109q172 0 287 164l41 -30q-129 -215 -369 -215q-207 0 -318.5 141t-111.5 360q0 215 106.5 358.5t292.5 143.5q205 0 307.5 -116t102.5 -335zM276 532h431q0 172 -54.5 265.5t-160.5 93.5q-92 0 -154 -102.5t-62 -256.5z M696 1321l-215 -246h-82l113 246h184z" />
<glyph unicode="&#xea;" horiz-adv-x="972" d="M891 532l-4 -81h-611q0 -172 74 -281t203 -109q172 0 287 164l41 -30q-129 -215 -369 -215q-207 0 -318.5 141t-111.5 360q0 215 106.5 358.5t292.5 143.5q205 0 307.5 -116t102.5 -335zM276 532h431q0 172 -54.5 265.5t-160.5 93.5q-92 0 -154 -102.5t-62 -256.5z M655 1055l-174 143l-174 -143h-82l164 215h184l164 -215h-82z" />
<glyph unicode="&#xeb;" horiz-adv-x="972" d="M891 532l-4 -81h-611q0 -172 74 -281t203 -109q172 0 287 164l41 -30q-129 -215 -369 -215q-207 0 -318.5 141t-111.5 360q0 215 106.5 358.5t292.5 143.5q205 0 307.5 -116t102.5 -335zM276 532h431q0 172 -54.5 265.5t-160.5 93.5q-92 0 -154 -102.5t-62 -256.5z M748 1188q0 -39 -27 -65.5t-66 -26.5t-65.5 26.5t-26.5 65.5t26.5 65.5t65.5 26.5t66 -26.5t27 -65.5zM399 1188q0 -39 -26.5 -65.5t-65.5 -26.5t-65.5 26.5t-26.5 65.5t26.5 65.5t65.5 26.5t65.5 -26.5t26.5 -65.5z" />
<glyph unicode="&#xec;" d="M348 717v-717h-184v717q0 104 -29 154.5t-115 50.5h-40v41h184q111 0 147.5 -47t36.5 -199zM225 1075l-215 307h205l92 -307h-82z" />
<glyph unicode="&#xed;" d="M348 717v-717h-184v717q0 104 -29 154.5t-115 50.5h-40v41h184q111 0 147.5 -47t36.5 -199zM471 1321l-215 -246h-82l113 246h184z" />
<glyph unicode="&#xee;" d="M348 717v-717h-184v717q0 104 -29 154.5t-115 50.5h-40v41h184q111 0 147.5 -47t36.5 -199zM430 1065l-174 143l-174 -143h-82l164 215h184l164 -215h-82z" />
<glyph unicode="&#xef;" d="M348 717v-717h-184v717q0 104 -29 154.5t-115 50.5h-40v41h184q111 0 147.5 -47t36.5 -199zM186 1178q0 -43 -25.5 -68t-68.5 -25q-47 0 -81 39t-34 93q0 43 26 67.5t69 24.5q47 0 80.5 -39t33.5 -92zM502 1178q0 -43 -25.5 -68t-68.5 -25q-47 0 -81 39t-34 93 q0 43 25.5 67.5t68.5 24.5q47 0 81 -39t34 -92z" />
<glyph unicode="&#xf0;" horiz-adv-x="1044" d="M553 1065l-61 61l81 82q-92 92 -225 92q-20 0 -69 -12l-17 39q68 45 168 45q121 0 236 -82l71 82l62 -61l-72 -72q236 -236 236 -686q0 -264 -119 -418.5t-332 -154.5q-209 0 -330 143t-121 358t121 358.5t330 143.5q84 0 155.5 -44t110.5 -120q-47 217 -143 328z M768 481.5q0 180.5 -71.5 300t-184.5 119.5t-184.5 -119.5t-71.5 -300t71.5 -300.5t184.5 -120t184.5 120t71.5 300.5z" />
<glyph unicode="&#xf1;" horiz-adv-x="1126" d="M164 0v717q0 104 -29 154.5t-115 50.5h-40v41h184q141 0 174 -82h10q102 102 266 102q348 0 349 -369v-614h-185v614q0 143 -64.5 210t-160.5 67q-109 0 -205 -109v-782h-184zM420 1096h-62q0 104 30 144t93 40q41 0 97.5 -30.5t97.5 -30.5q23 0 42 19t19 42h62 q0 -104 -30 -144t-93 -40q-41 0 -97.5 30.5t-97.5 30.5q-23 0 -42 -19t-19 -42z" />
<glyph unicode="&#xf2;" horiz-adv-x="1024" d="M768 481.5q0 180.5 -71.5 300t-184.5 119.5t-184.5 -119.5t-71.5 -300t71.5 -300.5t184.5 -120t184.5 120t71.5 300.5zM61 481q0 215 121 358.5t330 143.5t330 -143.5t121 -358.5t-121 -358t-330 -143t-330 143t-121 358zM492 1075l-216 307h205l92 -307h-81z" />
<glyph unicode="&#xf3;" horiz-adv-x="1024" d="M768 481.5q0 180.5 -71.5 300t-184.5 119.5t-184.5 -119.5t-71.5 -300t71.5 -300.5t184.5 -120t184.5 120t71.5 300.5zM61 481q0 215 121 358.5t330 143.5t330 -143.5t121 -358.5t-121 -358t-330 -143t-330 143t-121 358zM748 1321l-216 -246h-81l112 246h185z" />
<glyph unicode="&#xf4;" horiz-adv-x="1024" d="M768 481.5q0 180.5 -71.5 300t-184.5 119.5t-184.5 -119.5t-71.5 -300t71.5 -300.5t184.5 -120t184.5 120t71.5 300.5zM61 481q0 215 121 358.5t330 143.5t330 -143.5t121 -358.5t-121 -358t-330 -143t-330 143t-121 358zM686 1055l-174 143l-174 -143h-82l164 215h184 l164 -215h-82z" />
<glyph unicode="&#xf5;" horiz-adv-x="1024" d="M768 481.5q0 180.5 -71.5 300t-184.5 119.5t-184.5 -119.5t-71.5 -300t71.5 -300.5t184.5 -120t184.5 120t71.5 300.5zM61 481q0 215 121 358.5t330 143.5t330 -143.5t121 -358.5t-121 -358t-330 -143t-330 143t-121 358zM348 1096h-61q0 104 29.5 144t93.5 40 q41 0 97 -30.5t97 -30.5q23 0 42.5 19t19.5 42h61q0 -104 -29.5 -144t-93.5 -40q-41 0 -97 30.5t-97 30.5q-23 0 -42.5 -19t-19.5 -42z" />
<glyph unicode="&#xf6;" horiz-adv-x="1024" d="M768 481.5q0 180.5 -71.5 300t-184.5 119.5t-184.5 -119.5t-71.5 -300t71.5 -300.5t184.5 -120t184.5 120t71.5 300.5zM61 481q0 215 121 358.5t330 143.5t330 -143.5t121 -358.5t-121 -358t-330 -143t-330 143t-121 358zM778 1188q0 -39 -26.5 -65.5t-65.5 -26.5 t-65.5 26.5t-26.5 65.5t26.5 65.5t65.5 26.5t65.5 -26.5t26.5 -65.5zM430 1188q0 -39 -26.5 -65.5t-65.5 -26.5t-65.5 26.5t-26.5 65.5t26.5 65.5t65.5 26.5t65.5 -26.5t26.5 -65.5z" />
<glyph unicode="&#xf7;" horiz-adv-x="1024" d="M963 635h-902v82h902v-82zM604 389q0 -39 -26.5 -65.5t-65.5 -26.5t-65.5 26.5t-26.5 65.5t26.5 65.5t65.5 26.5t65.5 -26.5t26.5 -65.5zM604 962.5q0 -38.5 -26.5 -65.5t-65.5 -27t-65.5 27t-26.5 65.5t26.5 65.5t65.5 27t65.5 -27t26.5 -65.5z" />
<glyph unicode="&#xf8;" horiz-adv-x="1024" d="M307 -61l-71 30l34 76q-100 66 -154.5 180.5t-54.5 255.5q0 215 121 358.5t330 143.5q94 0 172 -31l33 72l71 -31l-34 -78q100 -63 154.5 -178.5t54.5 -255.5q0 -215 -121 -358t-330 -143q-94 0 -172 30zM768 481q0 184 -74 303l-309 -673q59 -49 127 -50 q113 0 184.5 120t71.5 300zM256 481q0 -186 74 -305l307 676q-55 49 -125 49q-113 0 -184.5 -120t-71.5 -300z" />
<glyph unicode="&#xf9;" horiz-adv-x="1105" d="M942 963v-963h-102l-72 82h-10q-102 -102 -266 -102q-348 0 -349 368v369q0 104 -28.5 154.5t-114.5 50.5h-20v41h163q111 0 148 -47.5t37 -198.5v-369q0 -143 64.5 -209.5t160.5 -66.5q109 0 205 108v783h184zM512 1024l-215 307h205l92 -307h-82z" />
<glyph unicode="&#xfa;" horiz-adv-x="1105" d="M942 963v-963h-102l-72 82h-10q-102 -102 -266 -102q-348 0 -349 368v369q0 104 -28.5 154.5t-114.5 50.5h-20v41h163q111 0 148 -47.5t37 -198.5v-369q0 -143 64.5 -209.5t160.5 -66.5q109 0 205 108v783h184zM758 1270l-215 -246h-82l112 246h185z" />
<glyph unicode="&#xfb;" horiz-adv-x="1105" d="M942 963v-963h-102l-72 82h-10q-102 -102 -266 -102q-348 0 -349 368v369q0 104 -28.5 154.5t-114.5 50.5h-20v41h163q111 0 148 -47.5t37 -198.5v-369q0 -143 64.5 -209.5t160.5 -66.5q109 0 205 108v783h184zM717 1044l-174 144l-174 -144h-82l164 216h184l164 -216 h-82z" />
<glyph unicode="&#xfc;" horiz-adv-x="1105" d="M942 963v-963h-102l-72 82h-10q-102 -102 -266 -102q-348 0 -349 368v369q0 104 -28.5 154.5t-114.5 50.5h-20v41h163q111 0 148 -47.5t37 -198.5v-369q0 -143 64.5 -209.5t160.5 -66.5q109 0 205 108v783h184zM809 1137q0 -39 -26.5 -66t-65.5 -27t-65.5 27t-26.5 66 t26.5 65.5t65.5 26.5t65.5 -26.5t26.5 -65.5zM461 1137q0 -39 -26.5 -66t-65.5 -27t-66 27t-27 66t27 65.5t66 26.5t65.5 -26.5t26.5 -65.5z" />
<glyph unicode="&#xfd;" horiz-adv-x="993" d="M440 -133l41 113l-317 798q-59 147 -225 164v41h174q180 0 245 -164l226 -563l266 707h102l-409 -1096q-59 -162 -131 -219.5t-187 -57.5h-61v62q100 0 165.5 46t110.5 169zM809 1270l-215 -246h-82l113 246h184z" />
<glyph unicode="&#xfe;" horiz-adv-x="1075" d="M348 778v-655q123 -61 195 -62q131 0 193.5 115t62.5 305q0 188 -59.5 304t-176.5 116q-133 0 -215 -123zM348 983v-113q90 113 277 113q176 0 272 -141.5t96 -360.5t-99 -360t-290 -141q-133 0 -256 61v-430h-184v1495q0 104 -29 154.5t-115 50.5h-30v41h174 q111 0 147.5 -47.5t36.5 -198.5v-123z" />
<glyph unicode="&#xff;" horiz-adv-x="993" d="M440 -133l41 113l-317 798q-59 147 -225 164v41h174q180 0 245 -164l226 -563l266 707h102l-409 -1096q-59 -162 -131 -219.5t-187 -57.5h-61v62q100 0 165.5 46t110.5 169zM840 1137q0 -39 -27 -66t-65.5 -27t-65.5 27t-27 66t27 65.5t65.5 26.5t65.5 -26.5t27 -65.5z M492 1137q0 -39 -27 -66t-66 -27t-65.5 27t-26.5 66t26.5 65.5t65.5 26.5t66 -26.5t27 -65.5z" />
<glyph unicode="&#x100;" horiz-adv-x="1269" d="M1352 41v-41q-35 -10 -82 -10q-246 0 -348 266l-52 133h-573l-164 -389h-92l573 1352h62l450 -1096q49 -117 95.5 -162t130.5 -53zM584 1065l-256 -594h501z" />
<glyph unicode="&#x101;" horiz-adv-x="993" d="M666 195v276h-62q-152 0 -240 -56.5t-88 -148.5q0 -94 56.5 -144t138.5 -50q113 0 195 123zM850 0h-102l-72 92h-10q-90 -113 -287 -112q-47 0 -95 14t-95.5 44t-77 89t-29.5 139q0 287 522 287h62q0 201 -55.5 274.5t-159.5 73.5q-184 0 -226 -174h-92q0 47 2 70.5 t13.5 56.5t35.5 57q72 72 308 72q78 0 135 -16.5t111.5 -59.5t83 -132t28.5 -222v-553z" />
<glyph unicode="&#x106;" horiz-adv-x="1300" d="M952 1761l-215 -245h-82l113 245h184zM1219 922h-41q-76 389 -420 389q-104 0 -189.5 -34t-155 -108.5t-108.5 -204.5t-39 -309q0 -119 29 -226t86 -195.5t154.5 -140.5t222.5 -52q285 0 461 287l41 -31q-96 -184 -232.5 -261t-331.5 -77q-287 0 -461 198.5t-174 497.5 q0 307 186.5 522.5t448.5 215.5q162 0 288 -46.5t183 -117.5q25 -29 36 -84t13.5 -98t2.5 -125z" />
<glyph unicode="&#x107;" horiz-adv-x="931" d="M768 1351l-215 -245h-82l113 245h184zM512 983q225 0 297 -72q35 -35 43 -85t8 -181h-41q-8 125 -80.5 190.5t-185.5 65.5q-147 0 -222 -116.5t-75 -303t75 -303.5t222 -117q102 0 171 41t126 123l41 -30q-129 -215 -379 -215q-221 0 -336 141t-115 360t115 360.5 t336 141.5z" />
<glyph unicode="&#x108;" horiz-adv-x="1300" d="M870 1515l-174 144l-174 -144h-82l164 215h184l164 -215h-82zM1219 922h-41q-76 389 -420 389q-104 0 -189.5 -34t-155 -108.5t-108.5 -204.5t-39 -309q0 -119 29 -226t86 -195.5t154.5 -140.5t222.5 -52q285 0 461 287l41 -31q-96 -184 -232.5 -261t-331.5 -77 q-287 0 -461 198.5t-174 497.5q0 307 186.5 522.5t448.5 215.5q162 0 288 -46.5t183 -117.5q25 -29 36 -84t13.5 -98t2.5 -125z" />
<glyph unicode="&#x109;" horiz-adv-x="931" d="M686 1106l-174 144l-174 -144h-82l164 215h184l164 -215h-82zM512 983q225 0 297 -72q35 -35 43 -85t8 -181h-41q-8 125 -80.5 190.5t-185.5 65.5q-147 0 -222 -116.5t-75 -303t75 -303.5t222 -117q102 0 171 41t126 123l41 -30q-129 -215 -379 -215q-221 0 -336 141 t-115 360t115 360.5t336 141.5z" />
<glyph unicode="&#x10a;" horiz-adv-x="1300" d="M696 1739q47 0 79 -33t32 -78q0 -47 -33 -80t-78 -33t-78 33t-33 80q0 45 33 78t78 33zM1219 922h-41q-76 389 -420 389q-104 0 -189.5 -34t-155 -108.5t-108.5 -204.5t-39 -309q0 -119 29 -226t86 -195.5t154.5 -140.5t222.5 -52q285 0 461 287l41 -31 q-96 -184 -232.5 -261t-331.5 -77q-287 0 -461 198.5t-174 497.5q0 307 186.5 522.5t448.5 215.5q162 0 288 -46.5t183 -117.5q25 -29 36 -84t13.5 -98t2.5 -125z" />
<glyph unicode="&#x10b;" horiz-adv-x="931" d="M512 1330q47 0 79 -33t32 -78q0 -47 -33 -80t-78 -33t-78 33t-33 80q0 45 33 78t78 33zM512 983q225 0 297 -72q35 -35 43 -85t8 -181h-41q-8 125 -80.5 190.5t-185.5 65.5q-147 0 -222 -116.5t-75 -303t75 -303.5t222 -117q102 0 171 41t126 123l41 -30 q-129 -215 -379 -215q-221 0 -336 141t-115 360t115 360.5t336 141.5z" />
<glyph unicode="&#x10c;" horiz-adv-x="1300" d="M870 1731l-174 -144l-174 144h-82l164 -215h184l164 215h-82zM1219 922h-41q-76 389 -420 389q-104 0 -189.5 -34t-155 -108.5t-108.5 -204.5t-39 -309q0 -119 29 -226t86 -195.5t154.5 -140.5t222.5 -52q285 0 461 287l41 -31q-96 -184 -232.5 -261t-331.5 -77 q-287 0 -461 198.5t-174 497.5q0 307 186.5 522.5t448.5 215.5q162 0 288 -46.5t183 -117.5q25 -29 36 -84t13.5 -98t2.5 -125z" />
<glyph unicode="&#x10d;" horiz-adv-x="931" d="M686 1321l-174 -144l-174 144h-82l164 -215h184l164 215h-82zM512 983q225 0 297 -72q35 -35 43 -85t8 -181h-41q-8 125 -80.5 190.5t-185.5 65.5q-147 0 -222 -116.5t-75 -303t75 -303.5t222 -117q102 0 171 41t126 123l41 -30q-129 -215 -379 -215q-221 0 -336 141 t-115 360t115 360.5t336 141.5z" />
<glyph unicode="&#x10e;" horiz-adv-x="1423" d="M864 1731l-174 -144l-174 144h-82l164 -215h184l164 215h-82zM395 1247v-1149q121 -27 209 -26q231 0 383 165.5t152 438.5q0 270 -150.5 437t-388.5 167q-99 0 -205 -33zM20 1352h537q397 0 601 -176.5t204 -491.5q0 -309 -194.5 -496.5t-557.5 -187.5h-405v1106 q0 104 -29 154.5t-115 50.5h-41v41z" />
<glyph unicode="&#x10f;" horiz-adv-x="1075" d="M1126 830l-20 30q164 115 163 277l-61 -21q-47 0 -80 34t-33 79q0 53 35 88t88 35q61 0 97 -38t36 -106q0 -249 -225 -378zM727 184v656q-123 61 -195 61q-131 0 -193.5 -114.5t-62.5 -305.5q0 -188 59.5 -304t176.5 -116q82 0 129 33t86 90zM911 1106v-1106h-102l-72 92 h-10q-90 -113 -276 -112q-176 0 -272.5 141t-96.5 360t99.5 360.5t289.5 141.5q133 0 256 -61v184q0 104 -28.5 154.5t-114.5 50.5h-41v41h184q111 0 147.5 -47t36.5 -199z" />
<glyph unicode="&#x110;" horiz-adv-x="1423" d="M51 635v82h154v389q0 104 -29 154.5t-115 50.5h-41v41h537q397 0 601 -176.5t204 -491.5q0 -309 -194.5 -496.5t-557.5 -187.5h-405v635h-154zM395 1247v-530h178v-82h-178v-537q121 -27 209 -26q231 0 383 165.5t152 438.5q0 270 -150.5 437t-388.5 167q-99 0 -205 -33z " />
<glyph unicode="&#x112;" horiz-adv-x="1198" d="M20 1352h873q174 0 174 -164v-154h-41q0 236 -256 236h-381v-533h553v-82h-553v-573h359q139 0 221 52t127 173l41 -10l-72 -195q-37 -102 -154 -102h-706v1106q0 104 -29 154.5t-115 50.5h-41v41z" />
<glyph unicode="&#x113;" horiz-adv-x="972" d="M891 532l-4 -81h-611q0 -172 74 -281t203 -109q172 0 287 164l41 -30q-129 -215 -369 -215q-207 0 -318.5 141t-111.5 360q0 215 106.5 358.5t292.5 143.5q205 0 307.5 -116t102.5 -335zM276 532h431q0 172 -54.5 265.5t-160.5 93.5q-92 0 -154 -102.5t-62 -256.5z" />
<glyph unicode="&#x116;" horiz-adv-x="1198" d="M457 1739q47 0 79 -33t32 -78q0 -47 -33 -80t-78 -33t-78 33t-33 80q0 45 33 78t78 33zM20 1352h873q174 0 174 -164v-154h-41q0 236 -256 236h-381v-533h553v-82h-553v-573h359q139 0 221 52t127 173l41 -10l-72 -195q-37 -102 -154 -102h-706v1106q0 104 -29 154.5 t-115 50.5h-41v41z" />
<glyph unicode="&#x117;" horiz-adv-x="972" d="M481 1330q47 0 79 -33t32 -78q0 -47 -33 -80t-78 -33t-78 33t-33 80q0 45 33 78t78 33zM891 532l-4 -81h-611q0 -172 74 -281t203 -109q172 0 287 164l41 -30q-129 -215 -369 -215q-207 0 -318.5 141t-111.5 360q0 215 106.5 358.5t292.5 143.5q205 0 307.5 -116 t102.5 -335zM276 532h431q0 172 -54.5 265.5t-160.5 93.5q-92 0 -154 -102.5t-62 -256.5z" />
<glyph unicode="&#x11a;" horiz-adv-x="1198" d="M631 1731l-174 -144l-174 144h-82l164 -215h184l164 215h-82zM20 1352h873q174 0 174 -164v-154h-41q0 236 -256 236h-381v-533h553v-82h-553v-573h359q139 0 221 52t127 173l41 -10l-72 -195q-37 -102 -154 -102h-706v1106q0 104 -29 154.5t-115 50.5h-41v41z" />
<glyph unicode="&#x11b;" horiz-adv-x="972" d="M655 1321l-174 -144l-174 144h-82l164 -215h184l164 215h-82zM891 532l-4 -81h-611q0 -172 74 -281t203 -109q172 0 287 164l41 -30q-129 -215 -369 -215q-207 0 -318.5 141t-111.5 360q0 215 106.5 358.5t292.5 143.5q205 0 307.5 -116t102.5 -335zM276 532h431 q0 172 -54.5 265.5t-160.5 93.5q-92 0 -154 -102.5t-62 -256.5z" />
<glyph unicode="&#x11c;" horiz-adv-x="1402" d="M870 1515l-174 144l-174 -144h-82l164 215h184l164 -215h-82zM758 1311q-125 0 -222.5 -52.5t-154.5 -140.5t-86 -195.5t-29 -226.5q0 -178 39 -308t108.5 -204.5t154.5 -108.5t190 -34q184 0 317 72v356q0 51 10.5 87t42 74t104.5 58.5t181 20.5v-41q-92 0 -122.5 -47.5 t-30.5 -147.5v-385q-211 -129 -502 -129q-303 0 -500 213t-197 524q0 299 174.5 498t460.5 199q176 0 304 -46.5t188 -117.5q51 -61 51 -277h-41q-78 359 -440 359z" />
<glyph unicode="&#x11d;" horiz-adv-x="983" d="M856 1106l-174 144l-174 -144h-82l164 215h184l164 -215h-82zM102 676q0 307 390 307h378v-51l-133 -21v-10q63 -33 103.5 -92t40.5 -133q0 -307 -389 -307q-215 0 -215.5 -72t215.5 -72q199 0 324.5 -78.5t125.5 -238.5q0 -317 -450.5 -317.5t-450.5 317.5 q0 94 63.5 163.5t161.5 102.5q-82 41 -82 123q0 66 72 113q-66 33 -110 102.5t-44 163.5zM512 143l-113 11q-174 -70 -174 -246q0 -119 73 -177.5t193.5 -58.5t193.5 58.5t73 177.5q0 204 -246 235zM696 676q0 117 -57 176t-147 59q-92 0 -148.5 -56t-56.5 -179t56 -179.5 t148.5 -56.5t148.5 56.5t56 179.5z" />
<glyph unicode="&#x11e;" horiz-adv-x="1402" d="M758 1311q-125 0 -222.5 -52.5t-154.5 -140.5t-86 -195.5t-29 -226.5q0 -178 39 -308t108.5 -204.5t154.5 -108.5t190 -34q184 0 317 72v356q0 51 10.5 87t42 74t104.5 58.5t181 20.5v-41q-92 0 -122.5 -47.5t-30.5 -147.5v-385q-211 -129 -502 -129q-303 0 -500 213 t-197 524q0 299 174.5 498t460.5 199q176 0 304 -46.5t188 -117.5q51 -61 51 -277h-41q-78 359 -440 359zM716.5 1618q151.5 0 225.5 92l41 -31q-84 -184 -266 -184t-266 184l41 31q73 -92 224.5 -92z" />
<glyph unicode="&#x11f;" horiz-adv-x="983" d="M102 676q0 307 390 307h378v-51l-133 -21v-10q63 -33 103.5 -92t40.5 -133q0 -307 -389 -307q-215 0 -215.5 -72t215.5 -72q199 0 324.5 -78.5t125.5 -238.5q0 -317 -450.5 -317.5t-450.5 317.5q0 94 63.5 163.5t161.5 102.5q-82 41 -82 123q0 66 72 113 q-66 33 -110 102.5t-44 163.5zM512 143l-113 11q-174 -70 -174 -246q0 -119 73 -177.5t193.5 -58.5t193.5 58.5t73 177.5q0 204 -246 235zM696 676q0 117 -57 176t-147 59q-92 0 -148.5 -56t-56.5 -179t56 -179.5t148.5 -56.5t148.5 56.5t56 179.5zM491.5 1198 q143.5 0 225.5 82l41 -31q-90 -164 -266.5 -164t-266.5 164l41 31q82 -82 225.5 -82z" />
<glyph unicode="&#x120;" horiz-adv-x="1402" d="M696 1739q47 0 79 -33t32 -78q0 -47 -33 -80t-78 -33t-78 33t-33 80q0 45 33 78t78 33zM758 1311q-125 0 -222.5 -52.5t-154.5 -140.5t-86 -195.5t-29 -226.5q0 -178 39 -308t108.5 -204.5t154.5 -108.5t190 -34q184 0 317 72v356q0 51 10.5 87t42 74t104.5 58.5 t181 20.5v-41q-92 0 -122.5 -47.5t-30.5 -147.5v-385q-211 -129 -502 -129q-303 0 -500 213t-197 524q0 299 174.5 498t460.5 199q176 0 304 -46.5t188 -117.5q51 -61 51 -277h-41q-78 359 -440 359z" />
<glyph unicode="&#x121;" horiz-adv-x="983" d="M680 1330q47 0 79 -33t32 -78q0 -47 -33 -80t-78 -33t-78 33t-33 80q0 45 33 78t78 33zM102 676q0 307 390 307h378v-51l-133 -21v-10q63 -33 103.5 -92t40.5 -133q0 -307 -389 -307q-215 0 -215.5 -72t215.5 -72q199 0 324.5 -78.5t125.5 -238.5q0 -317 -450.5 -317.5 t-450.5 317.5q0 94 63.5 163.5t161.5 102.5q-82 41 -82 123q0 66 72 113q-66 33 -110 102.5t-44 163.5zM512 143l-113 11q-174 -70 -174 -246q0 -119 73 -177.5t193.5 -58.5t193.5 58.5t73 177.5q0 204 -246 235zM696 676q0 117 -57 176t-147 59q-92 0 -148.5 -56 t-56.5 -179t56 -179.5t148.5 -56.5t148.5 56.5t56 179.5z" />
<glyph unicode="&#x122;" horiz-adv-x="1402" d="M661 -686l-20 30q164 115 163 277l-61 -21q-47 0 -80 34t-33 79q0 53 35 88t88 35q61 0 97 -38t36 -106q0 -249 -225 -378zM758 1311q-125 0 -222.5 -52.5t-154.5 -140.5t-86 -195.5t-29 -226.5q0 -178 39 -308t108.5 -204.5t154.5 -108.5t190 -34q184 0 317 72v356 q0 51 10.5 87t42 74t104.5 58.5t181 20.5v-41q-92 0 -122.5 -47.5t-30.5 -147.5v-385q-211 -129 -502 -129q-303 0 -500 213t-197 524q0 299 174.5 498t460.5 199q176 0 304 -46.5t188 -117.5q51 -61 51 -277h-41q-78 359 -440 359z" />
<glyph unicode="&#x124;" horiz-adv-x="1392" d="M778 1515l-174 144l-174 -144h-82l164 215h184l164 -215h-82zM1188 1352v-1106q0 -104 28.5 -154.5t114.5 -50.5h41v-41h-184q-111 0 -147.5 47t-36.5 199v409h-615v-655h-184v1106q0 104 -29 154.5t-115 50.5h-41v41h185q111 0 147.5 -47.5t36.5 -198.5v-369h615v615 h184z" />
<glyph unicode="&#x125;" horiz-adv-x="1105" d="M645 1474l-174 144l-174 -144h-82l164 215h184l164 -215h-82zM348 1106v-225q102 102 266 102q348 0 349 -369v-614h-185v614q0 143 -64.5 210t-160.5 67q-109 0 -205 -109v-782h-184v1106q0 104 -29 154.5t-115 50.5h-40v41h184q111 0 147.5 -47t36.5 -199z" />
<glyph unicode="&#x12a;" horiz-adv-x="593" d="M205 246v1106h184v-1106q0 -104 28.5 -154.5t114.5 -50.5h41v-41h-184q-111 0 -147.5 47t-36.5 199z" />
<glyph unicode="&#x12b;" d="M348 717v-717h-184v717q0 104 -29 154.5t-115 50.5h-40v41h184q111 0 147.5 -47t36.5 -199z" />
<glyph unicode="&#x130;" horiz-adv-x="593" d="M205 246v1106h184v-1106q0 -104 28.5 -154.5t114.5 -50.5h41v-41h-184q-111 0 -147.5 47t-36.5 199zM387 1567q0 -43 -25.5 -67.5t-68.5 -24.5q-47 0 -81 38.5t-34 92.5q0 43 25.5 67.5t68.5 24.5q47 0 81 -39t34 -92z" />
<glyph unicode="&#x131;" d="M348 717v-717h-184v717q0 104 -29 154.5t-115 50.5h-40v41h184q111 0 147.5 -47t36.5 -199z" />
<glyph unicode="&#x134;" horiz-adv-x="532" d="M471 1515l-174 144l-174 -144h-82l164 215h184l164 -215h-82zM10 -281v41q195 0 195 400v1192h184v-1192q0 -238 -81 -339.5t-298 -101.5z" />
<glyph unicode="&#x135;" d="M395 1431l-174 144l-174 -144h-82l164 215h184l164 -215h-82zM164 51v666q0 104 -29 154.5t-115 50.5h-40v41h184q111 0 147.5 -47.5t36.5 -198.5v-666q0 -238 -81 -339t-298 -101v41q195 0 195 399zM336 1178q0 -43 -25.5 -68t-68.5 -25q-47 0 -81 39t-34 93 q0 43 25.5 67.5t68.5 24.5q47 0 81 -39t34 -92z" />
<glyph unicode="&#x136;" horiz-adv-x="1331" d="M1161 -665l-20 30q164 115 163 277l-61 -21q-47 0 -80 34t-33 79q0 53 35 88t88 35q61 0 97 -38t36 -106q0 -249 -225 -378zM20 1352h185q111 0 147.5 -47.5t36.5 -198.5v-399l430 430l49 50q37 38 52.5 52t49.5 42t58.5 39t62 21.5t76.5 10.5h103v-52 q-86 0 -149.5 -29.5t-147.5 -113.5l-400 -399l471 -492q199 -209 349 -227v-39q-61 -20 -133 -20q-207 0 -441 245l-430 451v-676h-184v1106q0 104 -29 154.5t-115 50.5h-41v41z" />
<glyph unicode="&#x137;" horiz-adv-x="972" d="M792 -665l-20 30q164 115 163 277l-61 -21q-47 0 -80 34t-33 79q0 53 35 88t88 35q61 0 97 -38t36 -106q0 -249 -225 -378zM348 1106v-604l256 327q102 133 266 134h62v-52q-121 0 -195 -92l-225 -287l256 -327q117 -150 225 -166v-39q-41 -20 -102 -20q-174 0 -297 163 l-246 328v-471h-184v1106q0 104 -29 154.5t-115 50.5h-40v41h184q111 0 147.5 -47t36.5 -199z" />
<glyph unicode="&#x139;" horiz-adv-x="1095" d="M825 1761l-215 -245h-82l113 245h184zM389 1106v-1024h727v-82h-911v1106q0 104 -29 154.5t-115 50.5h-41v41h185q111 0 147.5 -47t36.5 -199z" />
<glyph unicode="&#x13a;" d="M328 1720l-215 -245h-82l113 245h184zM348 1106v-1106h-184v1106q0 104 -29 154.5t-115 50.5h-40v41h184q111 0 147.5 -47t36.5 -199z" />
<glyph unicode="&#x13b;" horiz-adv-x="1095" d="M563 -645l-20 30q164 115 163 277l-61 -21q-47 0 -80 34t-33 79q0 53 35 88t88 35q61 0 97 -38t36 -106q0 -249 -225 -378zM389 1106v-1024h727v-82h-911v1106q0 104 -29 154.5t-115 50.5h-41v41h185q111 0 147.5 -47t36.5 -199z" />
<glyph unicode="&#x13c;" d="M158 -645l-20 30q164 115 163 277l-61 -21q-47 0 -80 34t-33 79q0 53 35 88t88 35q61 0 97 -38t36 -106q0 -249 -225 -378zM348 1106v-1106h-184v1106q0 104 -29 154.5t-115 50.5h-40v41h184q111 0 147.5 -47t36.5 -199z" />
<glyph unicode="&#x13d;" horiz-adv-x="1095" d="M1331 871l-20 30q164 115 163 277l-61 -21q-47 0 -80 34t-33 79q0 53 35 88t88 35q61 0 97 -38t36 -106q0 -249 -225 -378zM389 1106v-1024h727v-82h-911v1106q0 104 -29 154.5t-115 50.5h-41v41h185q111 0 147.5 -47t36.5 -199z" />
<glyph unicode="&#x13e;" d="M379 830l-20 30q164 115 163 277l-61 -21q-47 0 -80 34t-33 79q0 53 35 88t88 35q61 0 97 -38t36 -106q0 -249 -225 -378zM348 1106v-1106h-184v1106q0 104 -29 154.5t-115 50.5h-40v41h184q111 0 147.5 -47t36.5 -199z" />
<glyph unicode="&#x13f;" horiz-adv-x="1095" d="M389 1106v-1024h727v-82h-911v1106q0 104 -29 154.5t-115 50.5h-41v41h185q111 0 147.5 -47t36.5 -199z" />
<glyph unicode="&#x140;" horiz-adv-x="1024" d="M348 1106v-1106h-184v1106q0 104 -29 154.5t-115 50.5h-40v41h184q111 0 147.5 -47t36.5 -199z" />
<glyph unicode="&#x143;" horiz-adv-x="1351" d="M860 1761l-215 -245h-82l113 245h184zM205 0v1106q0 100 -41 152.5t-144 52.5h-20v41h133q176 0 277 -123l716 -891v1014h82v-1372h-41l-880 1095v-1075h-82z" />
<glyph unicode="&#x144;" horiz-adv-x="1105" d="M727 1351l-215 -245h-82l113 245h184zM164 0v717q0 104 -29 154.5t-115 50.5h-40v41h184q141 0 174 -82h10q102 102 266 102q348 0 349 -369v-614h-185v614q0 143 -64.5 210t-160.5 67q-109 0 -205 -109v-782h-184z" />
<glyph unicode="&#x145;" horiz-adv-x="1351" d="M1091 -665l-20 30q164 115 163 277l-61 -21q-47 0 -80 34t-33 79q0 53 35 88t88 35q61 0 97 -38t36 -106q0 -249 -225 -378zM205 0v1106q0 100 -41 152.5t-144 52.5h-20v41h133q176 0 277 -123l716 -891v1014h82v-1372h-41l-880 1095v-1075h-82z" />
<glyph unicode="&#x146;" horiz-adv-x="1105" d="M465 -645l-20 30q164 115 163 277l-61 -21q-47 0 -80 34t-33 79q0 53 35 88t88 35q61 0 97 -38t36 -106q0 -249 -225 -378zM164 0v717q0 104 -29 154.5t-115 50.5h-40v41h184q141 0 174 -82h10q102 102 266 102q348 0 349 -369v-614h-185v614q0 143 -64.5 210t-160.5 67 q-109 0 -205 -109v-782h-184z" />
<glyph unicode="&#x147;" horiz-adv-x="1351" d="M778 1731l-174 -144l-174 144h-82l164 -215h184l164 215h-82zM205 0v1106q0 100 -41 152.5t-144 52.5h-20v41h133q176 0 277 -123l716 -891v1014h82v-1372h-41l-880 1095v-1075h-82z" />
<glyph unicode="&#x148;" horiz-adv-x="1105" d="M645 1321l-174 -144l-174 144h-82l164 -215h184l164 215h-82zM164 0v717q0 104 -29 154.5t-115 50.5h-40v41h184q141 0 174 -82h10q102 102 266 102q348 0 349 -369v-614h-185v614q0 143 -64.5 210t-160.5 67q-109 0 -205 -109v-782h-184z" />
<glyph unicode="&#x152;" horiz-adv-x="1904" d="M61 676q0 307 174.5 512t460.5 205q129 0 226 -41h677q174 0 175 -164v-154h-41q0 236 -256 236h-381v-533h553v-82h-553v-573h358q139 0 221 52t127 173l41 -10l-71 -195q-37 -102 -154 -102h-696q-96 -41 -226 -41q-287 0 -461 205t-174 512zM696 41q125 0 215 65v1143 q-92 61 -215 62q-199 0 -314.5 -171t-115.5 -464t115.5 -464t314.5 -171z" />
<glyph unicode="&#x153;" horiz-adv-x="1587" d="M1505 532l-4 -81h-610q0 -172 73.5 -281t202.5 -109q172 0 287 164l41 -30q-129 -215 -369 -215q-184 0 -307 122q-123 -123 -307 -122q-209 0 -330 143t-121 358t121 358.5t330 143.5q199 0 309 -121q104 121 275 121q205 0 307 -116t102 -335zM512 61q143 0 225 195 q-41 102 -41 225t41 226q-33 88 -92 141t-133 53q-113 0 -184.5 -119.5t-71.5 -300t71.5 -300.5t184.5 -120zM891 532h430q0 172 -54.5 265.5t-160.5 93.5q-92 0 -153.5 -102.5t-61.5 -256.5z" />
<glyph unicode="&#x154;" horiz-adv-x="1187" d="M543 1761l-215 -245h-82l113 245h184zM543 696q106 0 211.5 75t105.5 212q0 100 -57.5 171t-127 98.5t-132.5 27.5q-72 0 -154 -20v-543q82 -21 154 -21zM737 276l-205 349h-143v-625h-184v1106q0 104 -29 154.5t-115 50.5h-41v41h533q61 0 120.5 -6.5t134.5 -30t128 -61 t91 -107.5t38 -164q0 -279 -328 -348l215 -359q76 -127 136.5 -177t140.5 -58v-41q-41 -20 -123 -20q-109 0 -190 64t-179 232z" />
<glyph unicode="&#x155;" horiz-adv-x="829" d="M649 1351l-215 -245h-82l113 245h184zM164 0v717q0 104 -29 154.5t-115 50.5h-20v41h164q143 0 174 -93h10q90 113 246 113q78 0 123 -31q39 -27 71 -92l-81 -61q-47 61 -164 61q-127 0 -195 -102v-758h-184z" />
<glyph unicode="&#x158;" horiz-adv-x="1187" d="M461 1731l-174 -144l-174 144h-82l164 -215h184l164 215h-82zM543 696q106 0 211.5 75t105.5 212q0 100 -57.5 171t-127 98.5t-132.5 27.5q-72 0 -154 -20v-543q82 -21 154 -21zM737 276l-205 349h-143v-625h-184v1106q0 104 -29 154.5t-115 50.5h-41v41h533 q61 0 120.5 -6.5t134.5 -30t128 -61t91 -107.5t38 -164q0 -279 -328 -348l215 -359q76 -127 136.5 -177t140.5 -58v-41q-41 -20 -123 -20q-109 0 -190 64t-179 232z" />
<glyph unicode="&#x159;" horiz-adv-x="829" d="M569 1321l-174 -144l-174 144h-82l164 -215h184l164 215h-82zM164 0v717q0 104 -29 154.5t-115 50.5h-20v41h164q143 0 174 -93h10q90 113 246 113q78 0 123 -31q39 -27 71 -92l-81 -61q-47 61 -164 61q-127 0 -195 -102v-758h-184z" />
<glyph unicode="&#x15a;" horiz-adv-x="1077" d="M746 1761l-215 -245h-82l113 245h184zM985 344q0 -172 -114.5 -275.5t-311.5 -103.5q-178 0 -322.5 69.5t-144.5 180.5v219h37q33 -203 134.5 -295t277.5 -92q113 0 190.5 56.5t77.5 152.5q0 86 -53.5 149.5t-171.5 133.5l-252 149q-131 76 -185.5 157t-54.5 195 q0 158 108.5 253.5t288.5 95.5q166 0 304.5 -69t138.5 -177v-219h-37q-33 203 -131 293t-275 90q-94 0 -165.5 -57.5t-71.5 -149.5q0 -84 52 -139.5t175 -129.5l252 -149q137 -80 195.5 -154.5t58.5 -183.5z" />
<glyph unicode="&#x15b;" horiz-adv-x="890" d="M676 1351l-215 -245h-82l113 245h184zM809 246q0 -127 -99.5 -196.5t-258.5 -69.5q-236 0 -318 81q-25 25 -36 59t-13 63.5t-2 92.5h41q33 -215 287 -215q111 0 168 40t57 104q0 59 -44 102t-140 82l-123 51q-123 51 -184.5 116t-61.5 161q0 127 93 196.5t245 69.5 q225 0 307 -82q25 -25 36 -58.5t13 -63t2 -93.5h-41q-16 102 -85.5 158.5t-190.5 56.5q-96 0 -150.5 -40t-54.5 -103q0 -104 164 -174l123 -52q139 -57 202.5 -120.5t63.5 -165.5z" />
<glyph unicode="&#x15c;" horiz-adv-x="1077" d="M663 1515l-174 144l-174 -144h-82l164 215h184l164 -215h-82zM985 344q0 -172 -114.5 -275.5t-311.5 -103.5q-178 0 -322.5 69.5t-144.5 180.5v219h37q33 -203 134.5 -295t277.5 -92q113 0 190.5 56.5t77.5 152.5q0 86 -53.5 149.5t-171.5 133.5l-252 149 q-131 76 -185.5 157t-54.5 195q0 158 108.5 253.5t288.5 95.5q166 0 304.5 -69t138.5 -177v-219h-37q-33 203 -131 293t-275 90q-94 0 -165.5 -57.5t-71.5 -149.5q0 -84 52 -139.5t175 -129.5l252 -149q137 -80 195.5 -154.5t58.5 -183.5z" />
<glyph unicode="&#x15d;" horiz-adv-x="890" d="M594 1106l-174 144l-174 -144h-82l164 215h184l164 -215h-82zM809 246q0 -127 -99.5 -196.5t-258.5 -69.5q-236 0 -318 81q-25 25 -36 59t-13 63.5t-2 92.5h41q33 -215 287 -215q111 0 168 40t57 104q0 59 -44 102t-140 82l-123 51q-123 51 -184.5 116t-61.5 161 q0 127 93 196.5t245 69.5q225 0 307 -82q25 -25 36 -58.5t13 -63t2 -93.5h-41q-16 102 -85.5 158.5t-190.5 56.5q-96 0 -150.5 -40t-54.5 -103q0 -104 164 -174l123 -52q139 -57 202.5 -120.5t63.5 -165.5z" />
<glyph unicode="&#x15e;" horiz-adv-x="1077" d="M985 344q0 -174 -113.5 -276.5t-318.5 -102.5v-63q164 0 164 -144q0 -78 -54.5 -110.5t-191.5 -32.5v61q92 0 128 18.5t36 63.5t-36 63.5t-128 18.5v129q-156 16 -267.5 83t-111.5 163v219h37q33 -203 134.5 -295t277.5 -92q113 0 190.5 56.5t77.5 152.5 q0 86 -53.5 149.5t-171.5 133.5l-252 149q-131 76 -185.5 157t-54.5 195q0 158 108.5 253.5t288.5 95.5q166 0 304.5 -69t138.5 -177v-219h-37q-33 203 -131 293t-275 90q-94 0 -165.5 -57.5t-71.5 -149.5q0 -84 52 -139.5t175 -129.5l252 -149q137 -80 195.5 -154.5 t58.5 -183.5z" />
<glyph unicode="&#x15f;" horiz-adv-x="890" d="M809 246q0 -127 -99.5 -196.5t-258.5 -69.5v-64q164 0 163 -143q0 -78 -54 -111t-191 -33v62q92 0 127.5 17.5t35.5 64.5t-35.5 64.5t-127.5 17.5v125q-172 16 -236 81q-25 25 -36 59t-13 63.5t-2 92.5h41q33 -215 287 -215q111 0 168 40t57 104q0 59 -44 102t-140 82 l-123 51q-123 51 -184.5 116t-61.5 161q0 127 93 196.5t245 69.5q225 0 307 -82q25 -25 36 -58.5t13 -63t2 -93.5h-41q-16 102 -85.5 158.5t-190.5 56.5q-96 0 -150.5 -40t-54.5 -103q0 -104 164 -174l123 -52q139 -57 202.5 -120.5t63.5 -165.5z" />
<glyph unicode="&#x160;" horiz-adv-x="1077" d="M985 338q0 -172 -114.5 -275.5t-311.5 -103.5q-178 0 -322.5 69.5t-144.5 180.5v219h37q33 -203 134.5 -295t277.5 -92q113 0 190.5 56.5t77.5 152.5q0 86 -53.5 149.5t-171.5 132.5l-252 150q-131 76 -185.5 157t-54.5 195q0 158 108.5 253t288.5 95q166 0 304.5 -68.5 t138.5 -176.5v-219h-37q-33 203 -131 292.5t-275 89.5q-94 0 -165.5 -57t-71.5 -149q0 -84 52 -139.5t175 -129.5l252 -149q137 -80 195.5 -154.5t58.5 -183.5zM502 1546l174 144h82l-164 -215h-184l-164 215h82z" />
<glyph unicode="&#x161;" horiz-adv-x="890" d="M809 246q0 -127 -99.5 -196.5t-258.5 -69.5q-236 0 -318 81q-25 25 -36 59t-13 63.5t-2 92.5h41q33 -215 287 -215q111 0 168 40t57 104q0 59 -44 102t-140 82l-123 51q-123 51 -184.5 116t-61.5 161q0 127 93 196.5t245 69.5q225 0 307 -82q25 -25 36 -58.5t13 -63 t2 -93.5h-41q-16 102 -85.5 158.5t-190.5 56.5q-96 0 -150.5 -40t-54.5 -103q0 -104 164 -174l123 -52q139 -57 202.5 -120.5t63.5 -165.5zM440 1137l174 143h82l-164 -215h-184l-164 215h82z" />
<glyph unicode="&#x162;" horiz-adv-x="1126" d="M492 12h82v-104q164 0 164 -144q0 -78 -54.5 -110.5t-191.5 -32.5v61q92 0 128 17.5t36 64.5t-36 64.5t-128 17.5v166zM174 1352h952v-82h-460v-1270h-185v1270h-184q-256 0 -256 -236h-41v154q0 164 174 164z" />
<glyph unicode="&#x163;" horiz-adv-x="686" d="M328 -8h82v-104q164 0 164 -144q0 -78 -54.5 -110.5t-191.5 -32.5v61q92 0 128 17.5t36 64.5t-36 64.5t-128 17.5v166zM164 246v635h-144v82h144v184l102 123h82v-307h246v-82h-246v-635q0 -184 144 -185q72 0 153 41l21 -41q-109 -82 -256 -81q-113 0 -179.5 66.5 t-66.5 199.5z" />
<glyph unicode="&#x164;" horiz-adv-x="1126" d="M823 1731l-174 -144l-174 144h-82l164 -215h184l164 215h-82zM174 1352h952v-82h-460v-1270h-185v1270h-184q-256 0 -256 -236h-41v154q0 164 174 164z" />
<glyph unicode="&#x165;" horiz-adv-x="686" d="M563 748l-20 30q164 115 163 277l-61 -21q-47 0 -80 34t-33 79q0 53 35 88t88 35q61 0 97 -38t36 -106q0 -249 -225 -378zM164 246v635h-144v82h144v184l102 123h82v-307h246v-82h-246v-635q0 -184 144 -185q72 0 153 41l21 -41q-109 -82 -256 -81q-113 0 -179.5 66.5 t-66.5 199.5z" />
<glyph unicode="&#x16a;" horiz-adv-x="1392" d="M205 584v522q0 104 -29 154.5t-115 50.5h-41v41h185q111 0 147.5 -47.5t36.5 -198.5v-584q0 -227 84 -344t279 -117q229 0 322 123t93 400v768h82v-768q0 -317 -110.5 -460.5t-411.5 -143.5q-289 0 -405.5 146.5t-116.5 457.5z" />
<glyph unicode="&#x16b;" horiz-adv-x="1105" d="M942 963v-963h-102l-72 82h-10q-102 -102 -266 -102q-348 0 -349 368v369q0 104 -28.5 154.5t-114.5 50.5h-20v41h163q111 0 148 -47.5t37 -198.5v-369q0 -143 64.5 -209.5t160.5 -66.5q109 0 205 108v783h184z" />
<glyph unicode="&#x16e;" horiz-adv-x="1392" d="M634.5 2058q-100.5 0 -163 -64.5t-62.5 -171t62.5 -171t163 -64.5t163 64.5t62.5 171t-62.5 171t-163 64.5zM634.5 2130q139.5 0 223.5 -84t84 -223.5t-84 -223.5t-223.5 -84t-223.5 84t-84 223.5t84 223.5t223.5 84zM205 584v522q0 104 -29 154.5t-115 50.5h-41v41h185 q111 0 147.5 -47.5t36.5 -198.5v-584q0 -227 84 -344t279 -117q229 0 322 123t93 400v768h82v-768q0 -317 -110.5 -460.5t-411.5 -143.5q-289 0 -405.5 146.5t-116.5 457.5z" />
<glyph unicode="&#x16f;" horiz-adv-x="1105" d="M460.5 1649q-100.5 0 -163 -64.5t-62.5 -171t62.5 -171t163 -64.5t163 64.5t62.5 171t-62.5 171t-163 64.5zM460.5 1721q139.5 0 223.5 -84t84 -223.5t-84 -223.5t-223.5 -84t-223.5 84t-84 223.5t84 223.5t223.5 84zM942 963v-963h-102l-72 82h-10q-102 -102 -266 -102 q-348 0 -349 368v369q0 104 -28.5 154.5t-114.5 50.5h-20v41h163q111 0 148 -47.5t37 -198.5v-369q0 -143 64.5 -209.5t160.5 -66.5q109 0 205 108v783h184z" />
<glyph unicode="&#x178;" horiz-adv-x="1288" d="M430 1126l297 -460l428 686h92l-479 -779v-573h-184v559l-348 526q-74 111 -136.5 165.5t-160.5 60.5v41h184q102 0 170.5 -58.5t136.5 -167.5zM983 1515.5q0 -45.5 -28.5 -74t-73.5 -28.5t-74 28.5t-29 74t29 74t74 28.5t73.5 -28.5t28.5 -74zM635 1515.5 q0 -45.5 -28.5 -74t-74 -28.5t-74 28.5t-28.5 74t28.5 74t74 28.5t74 -28.5t28.5 -74z" />
<glyph unicode="&#x179;" horiz-adv-x="1249" d="M997 1761l-215 -245h-82l113 245h184zM297 1352h891l-871 -1270h840v-82h-1096v41l850 1229h-491q-256 0 -256 -236h-41v154q0 164 174 164z" />
<glyph unicode="&#x17a;" horiz-adv-x="921" d="M805 1351l-215 -245h-82l113 245h184zM236 963h624l-553 -881h553v-82h-799v39l533 842h-236q-127 0 -191.5 -49.5t-64.5 -135.5h-41v103q1 164 175 164z" />
<glyph unicode="&#x17b;" horiz-adv-x="1249" d="M741 1739q47 0 79 -33t32 -78q0 -47 -33 -80t-78 -33t-78 33t-33 80q0 45 33 78t78 33zM297 1352h891l-871 -1270h840v-82h-1096v41l850 1229h-491q-256 0 -256 -236h-41v154q0 164 174 164z" />
<glyph unicode="&#x17c;" horiz-adv-x="921" d="M549 1330q47 0 79 -33t32 -78q0 -47 -33 -80t-78 -33t-78 33t-33 80q0 45 33 78t78 33zM236 963h624l-553 -881h553v-82h-799v39l533 842h-236q-127 0 -191.5 -49.5t-64.5 -135.5h-41v103q1 164 175 164z" />
<glyph unicode="&#x17d;" horiz-adv-x="1249" d="M297 1352h891l-871 -1270h840v-82h-1096v41l850 1229h-491q-256 0 -256 -236h-41v154q0 164 174 164zM666 1526l174 143h82l-164 -215h-185l-163 215h82z" />
<glyph unicode="&#x17e;" horiz-adv-x="921" d="M236 963h624l-553 -881h553v-82h-799v39l533 842h-236q-127 0 -191.5 -49.5t-64.5 -135.5h-41v103q1 164 175 164zM471 1126l174 144h82l-164 -215h-184l-164 215h82z" />
<glyph unicode="&#x192;" />
<glyph unicode="&#x218;" horiz-adv-x="1077" d="M461 -679l-20 30q164 115 163 277l-61 -21q-47 0 -80 34t-33 79q0 53 35 88t88 35q61 0 97 -38t36 -106q0 -249 -225 -378zM985 344q0 -172 -114.5 -275.5t-311.5 -103.5q-178 0 -322.5 69.5t-144.5 180.5v219h37q33 -203 134.5 -295t277.5 -92q113 0 190.5 56.5 t77.5 152.5q0 86 -53.5 149.5t-171.5 133.5l-252 149q-131 76 -185.5 157t-54.5 195q0 158 108.5 253.5t288.5 95.5q166 0 304.5 -69t138.5 -177v-219h-37q-33 203 -131 293t-275 90q-94 0 -165.5 -57.5t-71.5 -149.5q0 -84 52 -139.5t175 -129.5l252 -149 q137 -80 195.5 -154.5t58.5 -183.5z" />
<glyph unicode="&#x219;" horiz-adv-x="890" d="M354 -665l-20 30q164 115 163 277l-61 -21q-47 0 -80 34t-33 79q0 53 35 88t88 35q61 0 97 -38t36 -106q0 -249 -225 -378zM809 246q0 -127 -99.5 -196.5t-258.5 -69.5q-236 0 -318 81q-25 25 -36 59t-13 63.5t-2 92.5h41q33 -215 287 -215q111 0 168 40t57 104 q0 59 -44 102t-140 82l-123 51q-123 51 -184.5 116t-61.5 161q0 127 93 196.5t245 69.5q225 0 307 -82q25 -25 36 -58.5t13 -63t2 -93.5h-41q-16 102 -85.5 158.5t-190.5 56.5q-96 0 -150.5 -40t-54.5 -103q0 -104 164 -174l123 -52q139 -57 202.5 -120.5t63.5 -165.5z" />
<glyph unicode="&#x2c6;" d="M430 1372l-174 144l-174 -144h-82l164 215h184l164 -215h-82z" />
<glyph unicode="&#x2d9;" d="M0 347q47 0 79 -33t32 -78q0 -47 -33 -80t-78 -33t-78 33t-33 80q0 45 33 78t78 33z" />
<glyph unicode="&#x2da;" d="M-0.5 666q-100.5 0 -163 -64.5t-62.5 -171t62.5 -171t163 -64.5t163 64.5t62.5 171t-62.5 171t-163 64.5zM-0.5 738q139.5 0 223.5 -84t84 -223.5t-84 -223.5t-223.5 -84t-223.5 84t-84 223.5t84 223.5t223.5 84z" />
<glyph unicode="&#x2dc;" horiz-adv-x="440" d="M61 1425h-61q0 104 29.5 144.5t93.5 40.5q41 0 97 -31t97 -31q23 0 42.5 19.5t19.5 42.5h61q0 -104 -29.5 -144.5t-93.5 -40.5q-41 0 -97 31t-97 31q-23 0 -42.5 -19.5t-19.5 -42.5z" />
<glyph unicode="&#x391;" horiz-adv-x="1269" d="M1352 41v-41q-35 -10 -82 -10q-246 0 -348 266l-52 133h-573l-164 -389h-92l573 1352h62l450 -1096q49 -117 95.5 -162t130.5 -53zM584 1065l-256 -594h501z" />
<glyph unicode="&#x392;" horiz-adv-x="1239" d="M584 645h-195v-545q96 -29 195 -28q184 0 286.5 74.5t102.5 211.5q0 139 -99.5 213t-289.5 74zM389 727h195q133 0 230 72.5t97 204.5q0 135 -113.5 205.5t-254.5 70.5q-72 0 -154 -20v-533zM20 1352h533q553 0 553 -359q0 -96 -66.5 -174t-199.5 -123 q188 -29 263 -111.5t75 -215.5q0 -369 -564 -369h-409v1106q0 104 -29 154.5t-115 50.5h-41v41z" />
<glyph unicode="&#x393;" horiz-adv-x="1044" d="M205 0v1106q0 104 -29 154.5t-115 50.5h-41v41h850q174 0 174 -164v-154h-40q0 236 -256 236h-359v-1270h-184z" />
<glyph unicode="&#x395;" horiz-adv-x="1198" d="M20 1352h873q174 0 174 -164v-154h-41q0 236 -256 236h-381v-533h553v-82h-553v-573h359q139 0 221 52t127 173l41 -10l-72 -195q-37 -102 -154 -102h-706v1106q0 104 -29 154.5t-115 50.5h-41v41z" />
<glyph unicode="&#x396;" horiz-adv-x="1249" d="M297 1352h891l-871 -1270h840v-82h-1096v41l850 1229h-491q-256 0 -256 -236h-41v154q0 164 174 164z" />
<glyph unicode="&#x397;" horiz-adv-x="1392" d="M1188 1352v-1106q0 -104 28.5 -154.5t114.5 -50.5h41v-41h-184q-111 0 -147.5 47t-36.5 199v409h-615v-655h-184v1106q0 104 -29 154.5t-115 50.5h-41v41h185q111 0 147.5 -47.5t36.5 -198.5v-369h615v615h184z" />
<glyph unicode="&#x399;" horiz-adv-x="593" d="M205 246v1106h184v-1106q0 -104 28.5 -154.5t114.5 -50.5h41v-41h-184q-111 0 -147.5 47t-36.5 199z" />
<glyph unicode="&#x39a;" horiz-adv-x="1331" d="M20 1352h185q111 0 147.5 -47.5t36.5 -198.5v-399l430 430l49 50q37 38 52.5 52t49.5 42t58.5 39t62 21.5t76.5 10.5h103v-52q-86 0 -149.5 -29.5t-147.5 -113.5l-400 -399l471 -492q199 -209 349 -227v-39q-61 -20 -133 -20q-207 0 -441 245l-430 451v-676h-184v1106 q0 104 -29 154.5t-115 50.5h-41v41z" />
<glyph unicode="&#x39c;" horiz-adv-x="1761" d="M1751 -51v-41q-217 0 -298 101.5t-81 338.5v789l-512 -1137h-41l-532 1157v-1157h-82v1352h194l492 -1065l481 1065h184v-1004q0 -399 195 -399z" />
<glyph unicode="&#x39d;" horiz-adv-x="1351" d="M205 0v1106q0 100 -41 152.5t-144 52.5h-20v41h133q176 0 277 -123l716 -891v1014h82v-1372h-41l-880 1095v-1075h-82z" />
<glyph unicode="&#x39f;" horiz-adv-x="1392" d="M1126 676q0 293 -115.5 464t-314 171t-314.5 -171t-116 -464t116 -464t314.5 -171t314 171t115.5 464zM61 676q0 307 174.5 512t461 205t460.5 -205t174 -512t-174 -512t-460.5 -205t-461 205t-174.5 512z" />
<glyph unicode="&#x3a1;" horiz-adv-x="1126" d="M543 625q109 0 213 81.5t104 245.5t-104.5 246t-212.5 82q-72 0 -154 -20v-615q82 -20 154 -20zM389 553v-553h-184v1106q0 104 -29 154.5t-115 50.5h-41v41h533q63 0 120.5 -7.5t133.5 -32t129 -66.5t91 -120.5t38 -183.5q0 -98 -37 -173t-88 -115t-118.5 -64.5 t-116 -30.5t-91.5 -6h-225z" />
<glyph unicode="&#x3a4;" horiz-adv-x="1126" d="M174 1352h952v-82h-460v-1270h-185v1270h-184q-256 0 -256 -236h-41v154q0 164 174 164z" />
<glyph unicode="&#x3a5;" horiz-adv-x="1288" d="M430 1126l297 -460l428 686h92l-479 -779v-573h-184v559l-348 526q-74 111 -136.5 165.5t-160.5 60.5v41h184q102 0 170.5 -58.5t136.5 -167.5z" />
<glyph unicode="&#x3a7;" horiz-adv-x="1310" d="M625 594l-461 -594h-103l512 666l-286 419q-49 72 -78 107t-96.5 75t-153.5 44v41h246q47 0 89 -18.5t80 -58.5t60.5 -68.5t57.5 -80.5l204 -307l410 533h102l-460 -604l327 -482q145 -213 297 -225v-41h-215q-61 0 -119.5 39t-90.5 79t-77 107z" />
<glyph unicode="&#x3aa;" horiz-adv-x="593" d="M215 1617q0 -45 -29 -73.5t-74 -28.5t-73.5 28.5t-28.5 73.5t28.5 74t73.5 29t74 -29t29 -74zM583 1617q0 -45 -28.5 -73.5t-73.5 -28.5t-73.5 28.5t-28.5 73.5t28.5 74t73.5 29t73.5 -29t28.5 -74zM205 246v1106h184v-1106q0 -104 28.5 -154.5t114.5 -50.5h41v-41h-184 q-111 0 -147.5 47t-36.5 199z" />
<glyph unicode="&#x3ab;" horiz-adv-x="1288" d="M512 1617q0 -45 -29 -73.5t-74 -28.5t-73.5 28.5t-28.5 73.5t28.5 74t73.5 29t74 -29t29 -74zM880 1617q0 -45 -28.5 -73.5t-73.5 -28.5t-73.5 28.5t-28.5 73.5t28.5 74t73.5 29t73.5 -29t28.5 -74zM430 1126l297 -460l428 686h92l-479 -779v-573h-184v559l-348 526 q-74 111 -136.5 165.5t-160.5 60.5v41h184q102 0 170.5 -58.5t136.5 -167.5z" />
<glyph unicode="&#x3bf;" horiz-adv-x="1024" d="M768 481.5q0 180.5 -71.5 300t-184.5 119.5t-184.5 -119.5t-71.5 -300t71.5 -300.5t184.5 -120t184.5 120t71.5 300.5zM61 481q0 215 121 358.5t330 143.5t330 -143.5t121 -358.5t-121 -358t-330 -143t-330 143t-121 358z" />
<glyph unicode="&#x3c1;" horiz-adv-x="1075" d="M348 778v-655q123 -61 195 -62q131 0 193.5 115t62.5 305q0 188 -59.5 304t-176.5 116q-133 0 -215 -123zM164 -389v1106q0 104 -29 154.5t-115 50.5h-40v41h184q143 0 174 -93h10q90 113 277 113q176 0 272 -141.5t96 -360.5t-99 -360t-290 -141q-133 0 -256 61v-430 h-184z" />
<glyph unicode="&#x3c7;" horiz-adv-x="921" d="M537 164l-127 215l-267 -379h-102l328 461l-179 297q-86 147 -210 164v41h174q135 0 231 -164l127 -215l266 379h103l-328 -461l178 -297q86 -150 221 -164v-41h-184q-135 0 -231 164z" />
<glyph unicode="&#x410;" horiz-adv-x="1269" d="M1352 41v-41q-35 -10 -82 -10q-246 0 -348 266l-52 133h-573l-164 -389h-92l573 1352h62l450 -1096q49 -117 95.5 -162t130.5 -53zM584 1065l-256 -594h501z" />
<glyph unicode="&#x411;" horiz-adv-x="1218" d="M952 389q0 158 -97 238t-271 80q-98 0 -195 -29v-578q96 -29 195 -28q174 0 271 79.5t97 237.5zM20 1352h863q174 0 174 -164v-154h-41q0 236 -256 236h-371v-492h225q100 0 186.5 -15t171.5 -55t135 -121t50 -198t-50 -197.5t-135 -120.5t-171 -55.5t-187 -15.5h-409 v1106q0 104 -29 154.5t-115 50.5h-41v41z" />
<glyph unicode="&#x412;" horiz-adv-x="1239" d="M584 645h-195v-545q96 -29 195 -28q184 0 286.5 74.5t102.5 211.5q0 139 -99.5 213t-289.5 74zM389 727h195q133 0 230 72.5t97 204.5q0 135 -113.5 205.5t-254.5 70.5q-72 0 -154 -20v-533zM20 1352h533q553 0 553 -359q0 -96 -66.5 -174t-199.5 -123 q188 -29 263 -111.5t75 -215.5q0 -369 -564 -369h-409v1106q0 104 -29 154.5t-115 50.5h-41v41z" />
<glyph unicode="&#x413;" horiz-adv-x="1044" d="M205 0v1106q0 104 -29 154.5t-115 50.5h-41v41h850q174 0 174 -164v-154h-40q0 236 -256 236h-359v-1270h-184z" />
<glyph unicode="&#x414;" horiz-adv-x="1382" d="M328 82h665v1188h-501q0 -426 -37 -705.5t-127 -482.5zM1178 82h112q31 0 51.5 -20.5t20.5 -51.5v-379h-92q-23 201 -84.5 285t-171.5 84h-666q-111 0 -172 -84t-84 -285h-92v379q0 31 20.5 51.5t51.5 20.5h82q174 375 174 1024q0 104 -29 154.5t-115 50.5h-30v41h1024 v-1270z" />
<glyph unicode="&#x415;" horiz-adv-x="1198" d="M20 1352h873q174 0 174 -164v-154h-41q0 236 -256 236h-381v-533h553v-82h-553v-573h359q139 0 221 52t127 173l41 -10l-72 -195q-37 -102 -154 -102h-706v1106q0 104 -29 154.5t-115 50.5h-41v41z" />
<glyph unicode="&#x416;" horiz-adv-x="1857" d="M266 266l389 492l-317 399q-113 143 -277 143v52h103q96 0 170 -55.5t158 -159.5l348 -430v645h178v-645l348 430q84 104 157.5 159.5t170.5 55.5h102v-52q-164 0 -276 -143l-318 -399l389 -492q72 -90 165 -153.5t163 -73.5v-39q-61 -20 -133 -20q-229 0 -420 245 l-348 451v-676h-178v676l-348 -451q-190 -246 -420 -245q-72 0 -133 20v39q70 10 162.5 73.5t164.5 153.5z" />
<glyph unicode="&#x417;" horiz-adv-x="1126" d="M276 645v82h195q145 0 246.5 79t101.5 218q0 137 -91 212t-216 75q-145 0 -247.5 -87t-141.5 -241h-41q0 78 2 114t13.5 80t35.5 72q53 66 165 105t224 39q492 0 492 -379q0 -104 -73 -188.5t-214 -129.5q184 -37 261 -123t77 -225q0 -113 -50 -193.5t-133 -120.5 t-169 -57.5t-181 -17.5q-164 0 -283.5 58.5t-207.5 197.5l41 31q154 -205 420 -205q162 0 260 80t98 217q0 147 -99 227t-290 80h-195z" />
<glyph unicode="&#x418;" horiz-adv-x="1372" d="M1044 0v1167l-655 -1167h-184v1106q0 104 -29 154.5t-115 50.5h-41v41h185q111 0 147.5 -47.5t36.5 -198.5v-922l655 1168h185v-1352h-185z" />
<glyph unicode="&#x419;" horiz-adv-x="1372" d="M1044 0v1167l-655 -1167h-184v1106q0 104 -29 154.5t-115 50.5h-41v41h185q111 0 147.5 -47.5t36.5 -198.5v-922l655 1168h185v-1352h-185zM716.5 1556q151.5 0 225.5 93l41 -31q-84 -184 -266 -184t-266 184l41 31q73 -93 224.5 -93z" />
<glyph unicode="&#x41a;" horiz-adv-x="1331" d="M20 1352h185q111 0 147.5 -47.5t36.5 -198.5v-399l430 430l49 50q37 38 52.5 52t49.5 42t58.5 39t62 21.5t76.5 10.5h103v-52q-86 0 -149.5 -29.5t-147.5 -113.5l-400 -399l471 -492q199 -209 349 -227v-39q-61 -20 -133 -20q-207 0 -441 245l-430 451v-676h-184v1106 q0 104 -29 154.5t-115 50.5h-41v41z" />
<glyph unicode="&#x41b;" horiz-adv-x="1290" d="M133 1352h1014v-1352h-184v1270h-492v-246q0 -410 -42 -643.5t-114.5 -317t-191.5 -83.5q-61 0 -123 20v51q102 6 164.5 91t97.5 319.5t35 644.5q0 104 -28.5 154.5t-114.5 50.5h-21v41z" />
<glyph unicode="&#x41c;" horiz-adv-x="1761" d="M1751 -51v-41q-217 0 -298 101.5t-81 338.5v789l-512 -1137h-41l-532 1157v-1157h-82v1352h194l492 -1065l481 1065h184v-1004q0 -399 195 -399z" />
<glyph unicode="&#x41d;" horiz-adv-x="1392" d="M1188 1352v-1106q0 -104 28.5 -154.5t114.5 -50.5h41v-41h-184q-111 0 -147.5 47t-36.5 199v409h-615v-655h-184v1106q0 104 -29 154.5t-115 50.5h-41v41h185q111 0 147.5 -47.5t36.5 -198.5v-369h615v615h184z" />
<glyph unicode="&#x41e;" horiz-adv-x="1392" d="M1126 676q0 293 -115.5 464t-314 171t-314.5 -171t-116 -464t116 -464t314.5 -171t314 171t115.5 464zM61 676q0 307 174.5 512t461 205t460.5 -205t174 -512t-174 -512t-460.5 -205t-461 205t-174.5 512z" />
<glyph unicode="&#x41f;" horiz-adv-x="1331" d="M1188 1352v-1352h-184v1270h-615v-1270h-184v1106q0 104 -29 154.5t-115 50.5h-41v41h1168z" />
<glyph unicode="&#x420;" horiz-adv-x="1126" d="M543 625q109 0 213 81.5t104 245.5t-104.5 246t-212.5 82q-72 0 -154 -20v-615q82 -20 154 -20zM389 553v-553h-184v1106q0 104 -29 154.5t-115 50.5h-41v41h533q63 0 120.5 -7.5t133.5 -32t129 -66.5t91 -120.5t38 -183.5q0 -98 -37 -173t-88 -115t-118.5 -64.5 t-116 -30.5t-91.5 -6h-225z" />
<glyph unicode="&#x421;" horiz-adv-x="1300" d="M1219 922h-41q-76 389 -420 389q-104 0 -189.5 -34t-155 -108.5t-108.5 -204.5t-39 -309q0 -119 29 -226t86 -195.5t154.5 -140.5t222.5 -52q285 0 461 287l41 -31q-96 -184 -232.5 -261t-331.5 -77q-287 0 -461 198.5t-174 497.5q0 307 186.5 522.5t448.5 215.5 q162 0 288 -46.5t183 -117.5q25 -29 36 -84t13.5 -98t2.5 -125z" />
<glyph unicode="&#x422;" horiz-adv-x="1126" d="M174 1352h952v-82h-460v-1270h-185v1270h-184q-256 0 -256 -236h-41v154q0 164 174 164z" />
<glyph unicode="&#x423;" horiz-adv-x="1239" d="M573 195l21 51l-379 839q-27 59 -41 84t-46 65t-78 56.5t-111 20.5v41h245q90 0 143.5 -59.5t102.5 -166.5l277 -614l368 840h123l-504 -1157q-92 -215 -325 -215h-103v61q246 0 307 154z" />
<glyph unicode="&#x424;" horiz-adv-x="1576" d="M266 645q0 -221 100.5 -356t329.5 -135v983q-229 0 -329.5 -135.5t-100.5 -356.5zM1311 645q0 221 -100.5 356.5t-329.5 135.5v-983q229 0 329.5 135t100.5 356zM881 1229v-10q315 0 475 -153t160 -421t-160 -420.5t-475 -152.5v-133h-185v133q-315 0 -475 152.5 t-160 420.5t160 421t475 153v10q0 78 -32.5 110.5t-110.5 32.5h-41v41h184q106 0 145.5 -39t39.5 -145z" />
<glyph unicode="&#x425;" horiz-adv-x="1310" d="M625 594l-461 -594h-103l512 666l-286 419q-49 72 -78 107t-96.5 75t-153.5 44v41h246q47 0 89 -18.5t80 -58.5t60.5 -68.5t57.5 -80.5l204 -307l410 533h102l-460 -604l327 -482q145 -213 297 -225v-41h-215q-61 0 -119.5 39t-90.5 79t-77 107z" />
<glyph unicode="&#x426;" horiz-adv-x="1392" d="M1024 0h-819v1106q0 104 -29 154.5t-115 50.5h-41v41h185q111 0 147.5 -47.5t36.5 -198.5v-1024h615v1270h184v-1270h112q31 0 51.5 -20.5t20.5 -51.5v-379h-92q-23 201 -84 285t-172 84z" />
<glyph unicode="&#x427;" horiz-adv-x="1249" d="M655 594q170 0 267 41v717h184v-1352h-184v553q-96 -41 -277 -41q-115 0 -196.5 16.5t-155.5 59.5t-112 132t-38 222v164q0 104 -28.5 154.5t-114.5 50.5h-20v41h184q111 0 147.5 -47.5t36.5 -198.5v-184q0 -190 71.5 -259t235.5 -69z" />
<glyph unicode="&#x428;" horiz-adv-x="1863" d="M1720 0h-1515v1106q0 104 -29 154.5t-115 50.5h-41v41h185q111 0 147.5 -47.5t36.5 -198.5v-1024h481v1270h185v-1270h481v1270h184v-1352z" />
<glyph unicode="&#x429;" horiz-adv-x="1925" d="M1556 0h-1351v1106q0 104 -29 154.5t-115 50.5h-41v41h185q111 0 147.5 -47.5t36.5 -198.5v-1024h481v1270h185v-1270h481v1270h184v-1270h113q31 0 51.5 -20.5t20.5 -51.5v-379h-93q-23 201 -84 285t-172 84z" />
<glyph unicode="&#x42a;" horiz-adv-x="1392" d="M1126 389q0 158 -97 238t-271 80q-98 0 -195 -29v-578q96 -29 195 -28q174 0 271 79.5t97 237.5zM0 963v317q0 31 20.5 51.5t51.5 20.5h491v-574h225q100 0 186.5 -15t171.5 -55t135 -121t50 -198t-50 -197.5t-135 -120.5t-171 -55.5t-187 -15.5h-409v1270h-62 q-133 0 -190 -66.5t-66 -240.5h-61z" />
<glyph unicode="&#x42b;" horiz-adv-x="1679" d="M389 1106v-328h225q70 0 133.5 -8t135 -34.5t123 -67.5t86 -113t34.5 -166t-34.5 -165.5t-86 -112.5t-123 -68t-135 -35t-133.5 -8h-409v1106q0 104 -29 154.5t-115 50.5h-41v41h185q111 0 147.5 -47t36.5 -199zM922 389q0 156 -93.5 237t-244.5 81q-98 0 -195 -29v-578 q96 -29 195 -28q152 0 245 80.5t93 236.5zM1290 246v1106h185v-1106q0 -104 28.5 -154.5t114.5 -50.5h41v-41h-184q-111 0 -148 47t-37 199z" />
<glyph unicode="&#x42c;" horiz-adv-x="1218" d="M952 389q0 158 -97 238t-271 80q-98 0 -195 -29v-578q96 -29 195 -28q174 0 271 79.5t97 237.5zM389 1106v-328h225q100 0 186.5 -15t171.5 -55t135 -121t50 -198t-50 -197.5t-135 -120.5t-171 -55.5t-187 -15.5h-409v1106q0 104 -29 154.5t-115 50.5h-41v41h185 q111 0 147.5 -47t36.5 -199z" />
<glyph unicode="&#x42d;" horiz-adv-x="1300" d="M123 922h-41q0 82 2 125t13.5 98t35.5 84q57 72 183 118t288 46q262 0 448.5 -215t186.5 -523q0 -299 -174 -497.5t-461 -198.5q-195 0 -331 77t-232 261l41 31q176 -287 461 -287q123 0 218 50t152.5 136t87 188.5t33.5 219.5h-678v82h678q-14 311 -148 452.5 t-343 141.5q-344 0 -420 -389z" />
<glyph unicode="&#x42e;" horiz-adv-x="1740" d="M1106 1393q248 0 410.5 -199t162.5 -518.5t-162.5 -518t-410.5 -198.5q-246 0 -405.5 192.5t-168.5 503.5h-143v-655h-184v1106q0 104 -29 154.5t-115 50.5h-41v41h185q111 0 147.5 -47.5t36.5 -198.5v-369h146q20 299 177.5 477.5t393.5 178.5zM1106 1311 q-160 0 -264.5 -169t-104.5 -466t104.5 -466t264.5 -169t264.5 169t104.5 466t-104.5 466t-264.5 169z" />
<glyph unicode="&#x42f;" horiz-adv-x="1167" d="M799 0v553h-199l-215 -389q-57 -104 -122.5 -144t-160.5 -40q-55 0 -122 22v39q139 14 225 164l215 368q-123 29 -210 116t-87 253q0 104 38 183t91 121t129 66.5t133 32t121 7.5h512v-41h-21q-86 0 -114.5 -50.5t-28.5 -154.5v-1106h-184zM645 625q72 0 154 20v615 q-82 20 -154 20q-109 0 -213 -82t-104 -246t104 -245.5t213 -81.5z" />
<glyph unicode="&#x430;" horiz-adv-x="993" d="M666 195v276h-62q-152 0 -240 -56.5t-88 -148.5q0 -94 56.5 -144t138.5 -50q113 0 195 123zM850 0h-102l-72 92h-10q-90 -113 -287 -112q-47 0 -95 14t-95.5 44t-77 89t-29.5 139q0 287 522 287h62q0 201 -55.5 274.5t-159.5 73.5q-184 0 -226 -174h-92q0 47 2 70.5 t13.5 56.5t35.5 57q72 72 308 72q78 0 135 -16.5t111.5 -59.5t83 -132t28.5 -222v-553z" />
<glyph unicode="&#x431;" horiz-adv-x="993" d="M501.5 819q-102.5 0 -169 -89t-66.5 -290q0 -379 235.5 -379t235.5 379q0 201 -66.5 290t-169 89zM809 1167l-358 -82q-141 -33 -207 -131t-80 -340h10q39 152 126 219.5t243 67.5q166 0 277.5 -117.5t111.5 -343.5q0 -229 -118 -344.5t-312 -115.5q-197 0 -313.5 120.5 t-116.5 370.5v82q0 250 30.5 388t92 199.5t174.5 88.5l307 71q76 16 110.5 36t42.5 57h41v-133q0 -77 -61 -93z" />
<glyph unicode="&#x432;" horiz-adv-x="993" d="M440 461h-112v-369q61 -20 133 -20q256 0 255.5 194.5t-276.5 194.5zM328 870v-327h112q109 0 172.5 45t63.5 129q0 82 -60.5 128t-154.5 46q-72 -1 -133 -21zM-20 963h501q170 0 279.5 -58.5t109.5 -187.5q0 -172 -204 -215q117 -23 181 -84.5t64 -151.5 q0 -266 -430 -266h-338v717q0 104 -28.5 154.5t-114.5 50.5h-20v41z" />
<glyph unicode="&#x433;" horiz-adv-x="829" d="M143 0v717q0 104 -28.5 154.5t-114.5 50.5h-20v41h675q154 0 154 -164v-123h-41q0 96 -59.5 150.5t-155.5 54.5h-225v-881h-185z" />
<glyph unicode="&#x434;" horiz-adv-x="1105" d="M256 717q0 104 -28.5 154.5t-114.5 50.5v41h819v-881h82q31 0 51 -20.5t20 -51.5v-327h-81q-16 170 -65.5 243.5t-150.5 73.5h-491q-100 0 -149.5 -73.5t-65.5 -243.5h-82v327q0 31 20.5 51.5t51.5 20.5h61q123 273 123 635zM307 82h441v799h-328q0 -516 -113 -799z" />
<glyph unicode="&#x435;" horiz-adv-x="972" d="M891 532l-4 -81h-611q0 -172 74 -281t203 -109q172 0 287 164l41 -30q-129 -215 -369 -215q-207 0 -318.5 141t-111.5 360q0 215 106.5 358.5t292.5 143.5q205 0 307.5 -116t102.5 -335zM276 532h431q0 172 -54.5 265.5t-160.5 93.5q-92 0 -154 -102.5t-62 -256.5z" />
<glyph unicode="&#x436;" horiz-adv-x="1331" d="M573 471v492h185v-492l215 358q82 133 266 134h51v-52q-135 0 -194 -92l-195 -317l215 -297q106 -150 236 -166v-39q-41 -20 -103 -20q-158 0 -276 163l-215 297v-440h-185v440l-215 -297q-119 -164 -276 -163q-61 0 -102 20v39q129 16 235 166l215 297l-194 317 q-59 92 -195 92v52h51q184 0 266 -134z" />
<glyph unicode="&#x437;" horiz-adv-x="890" d="M215 451v81h113q256 0 256 185q0 88 -58.5 136t-146.5 48q-111 0 -185.5 -58.5t-80.5 -156.5h-41q0 70 2 100.5t13 65.5t36 59q72 72 287 72q158 0 263 -62.5t105 -203.5q0 -174 -205 -225q111 -25 173.5 -85.5t62.5 -150.5q0 -276 -410 -276q-231 0 -358 163l41 31 q113 -113 276 -113q256 0 256 195t-286 195h-113z" />
<glyph unicode="&#x438;" horiz-adv-x="1126" d="M778 0v778l-430 -778h-184v717q0 104 -29 154.5t-115 50.5h-30v41h174q111 0 147.5 -47.5t36.5 -198.5v-533l430 779h185v-963h-185z" />
<glyph unicode="&#x439;" horiz-adv-x="1126" d="M778 0v778l-430 -778h-184v717q0 104 -29 154.5t-115 50.5h-30v41h174q111 0 147.5 -47.5t36.5 -198.5v-533l430 779h185v-963h-185zM563.5 1157q143.5 0 224.5 82l41 -31q-90 -164 -266 -164t-266 164l41 31q82 -82 225.5 -82z" />
<glyph unicode="&#x43a;" horiz-adv-x="962" d="M348 717v-246l256 358q96 133 266 134h52v-52q-119 0 -185 -92l-225 -317l236 -297q117 -150 235 -166v-39q-41 -20 -102 -20q-166 0 -297 163l-236 297v-440h-184v717q0 104 -29 154.5t-115 50.5h-40v41h184q111 0 147.5 -47t36.5 -199z" />
<glyph unicode="&#x43b;" horiz-adv-x="1085" d="M410 881v-246q0 -362 -63.5 -508.5t-213.5 -146.5q-51 0 -113 20v51q117 8 166.5 154.5t49.5 511.5q0 104 -30 154.5t-116 50.5v41h832v-963h-185v881h-327z" />
<glyph unicode="&#x43c;" horiz-adv-x="1300" d="M952 748l-338 -748h-41l-348 768v-768h-82v963h195l307 -676l307 676h185v-656q0 -121 44 -214t109 -93v-41q-184 0 -261 88t-77 260v441z" />
<glyph unicode="&#x43d;" horiz-adv-x="1105" d="M758 246v194h-410v-440h-184v717q0 104 -29 154.5t-115 50.5h-30v41h174q111 0 147.5 -47.5t36.5 -198.5v-195h410v441h184v-717q0 -104 28.5 -154.5t114.5 -50.5h31v-41h-174q-111 0 -147.5 47t-36.5 199z" />
<glyph unicode="&#x43e;" horiz-adv-x="1024" d="M768 481.5q0 180.5 -71.5 300t-184.5 119.5t-184.5 -119.5t-71.5 -300t71.5 -300.5t184.5 -120t184.5 120t71.5 300.5zM61 481q0 215 121 358.5t330 143.5t330 -143.5t121 -358.5t-121 -358t-330 -143t-330 143t-121 358z" />
<glyph unicode="&#x43f;" horiz-adv-x="1064" d="M942 963v-963h-184v881h-410v-881h-184v717q0 104 -29 154.5t-115 50.5h-20v41h942z" />
<glyph unicode="&#x440;" horiz-adv-x="1075" d="M348 778v-655q123 -61 195 -62q131 0 193.5 115t62.5 305q0 188 -59.5 304t-176.5 116q-133 0 -215 -123zM164 -389v1106q0 104 -29 154.5t-115 50.5h-40v41h184q143 0 174 -93h10q90 113 277 113q176 0 272 -141.5t96 -360.5t-99 -360t-290 -141q-133 0 -256 61v-430 h-184z" />
<glyph unicode="&#x441;" horiz-adv-x="931" d="M512 983q225 0 297 -72q35 -35 43 -85t8 -181h-41q-8 125 -80.5 190.5t-185.5 65.5q-147 0 -222 -116.5t-75 -303t75 -303.5t222 -117q102 0 171 41t126 123l41 -30q-129 -215 -379 -215q-221 0 -336 141t-115 360t115 360.5t336 141.5z" />
<glyph unicode="&#x442;" horiz-adv-x="921" d="M379 881h-103q-96 0 -155.5 -54.5t-59.5 -150.5h-41v123q0 164 154 164h727v-82h-338v-881h-184v881z" />
<glyph unicode="&#x443;" horiz-adv-x="993" d="M440 -133l41 113l-317 798q-59 147 -225 164v41h174q180 0 245 -164l226 -563l266 707h102l-409 -1096q-59 -162 -131 -219.5t-187 -57.5h-61v62q100 0 165.5 46t110.5 169z" />
<glyph unicode="&#x444;" horiz-adv-x="1290" d="M735 911v-860q152 14 225.5 127t73.5 303.5t-73.5 303t-225.5 126.5zM553 983v123q0 104 -28.5 154.5t-114.5 50.5h-31v41h174q111 0 147.5 -47.5t36.5 -198.5v-123q238 -8 365 -146.5t127 -355.5t-127 -355t-365 -146v-369h-184v369q-238 8 -365 146t-127 355t127 355.5 t365 146.5zM555 51v860q-152 -14 -225.5 -126.5t-73.5 -303t73.5 -303.5t225.5 -127z" />
<glyph unicode="&#x445;" horiz-adv-x="921" d="M537 164l-127 215l-267 -379h-102l328 461l-179 297q-86 147 -210 164v41h174q135 0 231 -164l127 -215l266 379h103l-328 -461l178 -297q86 -150 221 -164v-41h-184q-135 0 -231 164z" />
<glyph unicode="&#x446;" horiz-adv-x="1105" d="M799 0h-635v717q0 104 -29 154.5t-115 50.5h-30v41h174q111 0 147.5 -47.5t36.5 -198.5v-635h410v881h184v-881h82q31 0 51.5 -20.5t20.5 -51.5v-327h-82q-16 170 -65.5 243.5t-149.5 73.5z" />
<glyph unicode="&#x447;" horiz-adv-x="1044" d="M502 440q102 0 194 37v486h185v-963h-185v395q-92 -37 -204 -37q-369 0 -369 297v62q0 104 -28.5 154.5t-114.5 50.5h-21v41h174q111 0 147.5 -47.5t36.5 -198.5v-82q0 -100 53.5 -147.5t131.5 -47.5z" />
<glyph unicode="&#x448;" horiz-adv-x="1515" d="M1352 0h-1188v717q0 104 -29 154.5t-115 50.5h-30v41h174q111 0 147.5 -47.5t36.5 -198.5v-635h318v881h184v-881h317v881h185v-963z" />
<glyph unicode="&#x449;" horiz-adv-x="1515" d="M1208 0h-1044v717q0 104 -29 154.5t-115 50.5h-30v41h174q111 0 147.5 -47.5t36.5 -198.5v-635h318v881h184v-881h317v881h185v-881h82q31 0 51 -20.5t20 -51.5v-327h-82q-16 170 -65.5 243.5t-149.5 73.5z" />
<glyph unicode="&#x44a;" horiz-adv-x="1105" d="M492 481v-389q61 -20 133 -20q246 0 245.5 215t-245.5 215q-72 -1 -133 -21zM0 614v277q0 31 20.5 51.5t51.5 20.5h420v-390h153q420 0 420 -286.5t-420 -286.5h-338v881h-20q-221 0 -236 -267h-51z" />
<glyph unicode="&#x44b;" horiz-adv-x="1382" d="M348 481v-389q61 -20 133 -20q225 0 225.5 215t-225.5 215q-72 -1 -133 -21zM348 717v-144h154q399 0 399 -286.5t-399 -286.5h-338v717q0 104 -29 154.5t-115 50.5h-30v41h174q111 0 147.5 -47t36.5 -199zM1034 246v717h185v-717q0 -104 28.5 -154.5t114.5 -50.5h31v-41 h-174q-111 0 -148 47t-37 199z" />
<glyph unicode="&#x44c;" horiz-adv-x="962" d="M348 481v-389q61 -20 133 -20q246 0 246 215t-246 215q-72 -1 -133 -21zM348 717v-144h154q420 0 420 -286.5t-420 -286.5h-338v717q0 104 -29 154.5t-115 50.5h-30v41h174q111 0 147.5 -47t36.5 -199z" />
<glyph unicode="&#x44d;" horiz-adv-x="931" d="M420 983q221 0 335.5 -141.5t114.5 -360.5t-114.5 -360t-335.5 -141q-250 0 -379 215l41 30q57 -82 125.5 -123t171.5 -41q137 0 213 100.5t84 268.5h-430v82h430q-8 172 -83 280.5t-214 108.5q-113 0 -185.5 -65.5t-80.5 -190.5h-41q0 131 8 181.5t43 84.5q72 72 297 72 z" />
<glyph unicode="&#x44e;" horiz-adv-x="1372" d="M891 983q190 0 305 -138t115 -363.5t-115 -363.5t-305 -138q-182 0 -297 126.5t-123 333.5h-123v-440h-184v717q0 104 -29 154.5t-115 50.5h-30v41h174q111 0 147.5 -47.5t36.5 -198.5v-195h123q8 207 123 334t297 127zM890.5 901q-102.5 0 -163.5 -108.5t-61 -311 t61 -311.5t163.5 -109t164 109t61.5 311.5t-61.5 311t-164 108.5z" />
<glyph unicode="&#x44f;" horiz-adv-x="993" d="M829 717v-717h-184v410h-160l-123 -246q-47 -94 -105 -139t-144 -45q-51 0 -113 20v41q109 12 195 164l122 215q-98 16 -166.5 87t-68.5 179q0 276 410 277h481v-41q-86 0 -115 -50.5t-29 -154.5zM645 502v368q-61 20 -133 21q-236 0 -236 -205t236 -205q72 1 133 21z " />
<glyph unicode="&#x2000;" horiz-adv-x="1064" />
<glyph unicode="&#x2001;" horiz-adv-x="2129" />
<glyph unicode="&#x2002;" horiz-adv-x="1064" />
<glyph unicode="&#x2003;" horiz-adv-x="2129" />
<glyph unicode="&#x2004;" horiz-adv-x="708" />
<glyph unicode="&#x2005;" horiz-adv-x="532" />
<glyph unicode="&#x2006;" horiz-adv-x="354" />
<glyph unicode="&#x2007;" horiz-adv-x="354" />
<glyph unicode="&#x2008;" horiz-adv-x="266" />
<glyph unicode="&#x2009;" horiz-adv-x="425" />
<glyph unicode="&#x200a;" horiz-adv-x="116" />
<glyph unicode="&#x2010;" horiz-adv-x="686" d="M82 471v143h522v-143h-522z" />
<glyph unicode="&#x2011;" horiz-adv-x="686" d="M82 471v143h522v-143h-522z" />
<glyph unicode="&#x2012;" horiz-adv-x="686" d="M82 471v143h522v-143h-522z" />
<glyph unicode="&#x2013;" horiz-adv-x="1044" d="M1004 553v-82h-963v82h963z" />
<glyph unicode="&#x2014;" horiz-adv-x="1597" d="M1556 553v-82h-1515v82h1515z" />
<glyph unicode="&#x2018;" horiz-adv-x="542" d="M369 1393l20 -31q-164 -115 -164 -277l62 21q45 0 78.5 -33t33.5 -80q0 -53 -34.5 -88t-88.5 -35q-61 0 -97 38t-36 106q1 250 226 379z" />
<glyph unicode="&#x2019;" horiz-adv-x="542" d="M174 870l-20 31q164 115 163 277l-61 -21q-47 0 -80 34t-33 79q0 53 35 88t88 35q61 0 97 -38t36 -106q0 -250 -225 -379z" />
<glyph unicode="&#x201a;" horiz-adv-x="542" d="M174 -317l-20 30q164 115 163 277l-61 -21q-47 0 -80 34t-33 79q0 53 35 88t88 35q61 0 97 -38t36 -106q0 -249 -225 -378z" />
<glyph unicode="&#x201c;" horiz-adv-x="911" d="M737 1393l21 -31q-164 -115 -164 -277l61 21q45 0 79 -33t34 -80q0 -53 -35 -88t-88 -35q-61 0 -97 38t-36 106q0 250 225 379zM369 1393l20 -31q-164 -115 -164 -277l62 21q45 0 78.5 -33t33.5 -80q0 -53 -34.5 -88t-88.5 -35q-61 0 -97 38t-36 106q1 250 226 379z" />
<glyph unicode="&#x201d;" horiz-adv-x="911" d="M174 870l-20 31q164 115 163 277l-61 -21q-47 0 -80 34t-33 79q0 53 35 88t88 35q61 0 97 -38t36 -106q0 -250 -225 -379zM543 870l-21 31q164 115 164 277l-61 -21q-47 0 -80 34t-33 79q0 53 35 88t88 35q61 0 97 -38t36 -106q0 -250 -225 -379z" />
<glyph unicode="&#x201e;" horiz-adv-x="911" d="M174 -317l-20 30q164 115 163 277l-61 -21q-47 0 -80 34t-33 79q0 53 35 88t88 35q61 0 97 -38t36 -106q0 -249 -225 -378zM543 -317l-21 30q164 115 164 277l-61 -21q-47 0 -80 34t-33 79q0 53 35 88t88 35q61 0 97 -38t36 -106q0 -249 -225 -378z" />
<glyph unicode="&#x2020;" horiz-adv-x="1280" d="M922 594l-205 543l-205 -543h410zM1044 512h-655l328 860zM133 246l430 1126h92l-522 -1372q-41 -20 -102 -20q-57 0 -92 10v30q63 8 106 56.5t88 169.5zM205 31l164 420h696l174 -451h-92l-143 369h-574l-51 -123q-68 -162 -174 -215z" />
<glyph unicode="&#x2021;" horiz-adv-x="1280" d="M563 1372h92l-522 -1372h-92zM922 594l-205 543l-205 -543h410zM1044 512h-655l328 860zM1004 369h-574l-143 -369h-92l174 451h696l174 -451h-92z" />
<glyph unicode="&#x2022;" horiz-adv-x="696" d="M348.5 922q106.5 0 176 -70t69.5 -176.5t-69.5 -176t-176 -69.5t-176.5 69.5t-70 176t70 176.5t176.5 70z" />
<glyph unicode="&#x2026;" horiz-adv-x="1286" d="M213 195q47 0 79 -33t32 -78q0 -47 -33 -80t-78 -33t-78 33t-33 80q0 45 33 78t78 33zM643 195q47 0 79 -33t32 -78q0 -47 -33 -80t-78 -33t-78 33t-33 80q0 45 33 78t78 33zM1073 195q47 0 79 -33t32 -78q0 -47 -33 -80t-78 -33t-77.5 33t-32.5 80q0 45 32.5 78t77.5 33 z" />
<glyph unicode="&#x202f;" horiz-adv-x="425" />
<glyph unicode="&#x2030;" horiz-adv-x="1863" d="M225 0h-92l932 1352h92zM1802 245.5q0 -110.5 -73.5 -178t-202.5 -67.5t-203 67.5t-74 178t74 178.5t203 68t202.5 -68t73.5 -178.5zM1382 246q0 -84 40 -134.5t103.5 -50.5t103.5 50.5t40 134.5t-40 134t-103.5 50t-103.5 -50t-40 -134zM1188 245.5q0 -110.5 -74 -178 t-203 -67.5t-202.5 67.5t-73.5 178t73.5 178.5t202.5 68t203 -68t74 -178.5zM768 246q0 -84 40 -134.5t103.5 -50.5t103.5 50.5t40 134.5t-40 134t-103.5 50t-103.5 -50t-40 -134zM614 1106q0 -111 -73.5 -178.5t-202.5 -67.5t-203 67.5t-74 178.5t74 178.5t203 67.5 t202.5 -67.5t73.5 -178.5zM195 1106q0 -84 39.5 -134t103 -50t103.5 50t40 134t-40 134t-103.5 50t-103 -50t-39.5 -134z" />
<glyph unicode="&#x2039;" horiz-adv-x="542" d="M399 61l-358 400l358 399h82l-225 -399l225 -400h-82z" />
<glyph unicode="&#x203a;" horiz-adv-x="542" d="M502 461l-359 -400h-82l226 400l-226 399h82z" />
<glyph unicode="&#x205f;" horiz-adv-x="532" />
<glyph unicode="&#x20ac;" horiz-adv-x="1382" d="M737 604l-20 -82h-361q31 -211 152 -346t332 -135q285 0 460 287l41 -31q-96 -184 -232 -261t-331 -77q-252 0 -420 156.5t-204 406.5h-154l20 82h123v123h-112l20 82h107q47 252 221 418t399 166q162 0 288 -46.5t183 -117.5q25 -29 36 -84t13 -98t2 -125h-40 q-76 389 -420 389q-195 0 -324 -119t-160 -383h412l-20 -82h-400v-123h389z" />
<glyph unicode="&#x2122;" horiz-adv-x="1730" d="M309 1290h-78q-72 0 -115.5 -40t-43.5 -113h-31v92q0 123 115 123h559v-62h-269v-661h-137v661zM1389 1192l-252 -563h-31l-260 577v-577h-62v723h146l229 -508l230 508h137v-492q0 -92 33.5 -161.5t89.5 -69.5v-31q-141 0 -200.5 66.5t-59.5 195.5v332z" />
<glyph unicode="&#x2260;" horiz-adv-x="1239" d="M307 -98l-72 31l697 1515l71 -30zM82 799v82h1075v-82h-1075zM82 471v82h1075v-82h-1075z" />
<glyph unicode="&#xe000;" horiz-adv-x="965" d="M0 965h965v-965h-965v965z" />
<glyph unicode="&#xfb00;" horiz-adv-x="1454" d="M1239 1290q-164 0 -164 -266v-61h287v-82h-287v-881h-184v881h-144v82h144v61q0 348 358 348q129 0 174 -31q39 -27 72 -92l-61 -51q-62 92 -195 92zM512 1290q-164 0 -164 -266v-61h287v-82h-287v-881h-184v881h-144v82h144v61q0 348 358 348q129 0 174 -31 q39 -27 72 -92l-61 -51q-62 92 -195 92z" />
<glyph unicode="&#xfb01;" horiz-adv-x="1239" d="M1075 717v-717h-184v717q0 104 -29 154.5t-115 50.5h-40v41h184q111 0 147.5 -47t36.5 -199zM1063 1178q0 -43 -25.5 -68t-68.5 -25q-47 0 -81 39t-34 93q0 43 25.5 67.5t68.5 24.5q47 0 81 -39t34 -92zM512 1290q-164 0 -164 -266v-61h287v-82h-287v-881h-184v881h-144 v82h144v61q0 348 358 348q129 0 174 -31q39 -27 72 -92l-61 -51q-62 92 -195 92z" />
<glyph unicode="&#xfb02;" horiz-adv-x="1239" d="M1075 1106v-1106h-184v1106q0 104 -29 154.5t-115 50.5h-40v41h184q111 0 147.5 -47t36.5 -199zM512 1290q-164 0 -164 -266v-61h287v-82h-287v-881h-184v881h-144v82h144v61q0 348 358 348q129 0 174 -31q39 -27 72 -92l-61 -51q-62 92 -195 92z" />
<glyph unicode="&#xfb03;" horiz-adv-x="1966" d="M1802 717v-717h-184v717q0 104 -29 154.5t-115 50.5h-40v41h184q111 0 147.5 -47t36.5 -199zM1790 1178q0 -43 -25.5 -68t-68.5 -25q-47 0 -81 39t-34 93q0 43 25.5 67.5t68.5 24.5q47 0 81 -39t34 -92zM1239 1290q-164 0 -164 -266v-61h287v-82h-287v-881h-184v881h-144 v82h144v61q0 348 358 348q129 0 174 -31q39 -27 72 -92l-61 -51q-62 92 -195 92zM512 1290q-164 0 -164 -266v-61h287v-82h-287v-881h-184v881h-144v82h144v61q0 348 358 348q129 0 174 -31q39 -27 72 -92l-61 -51q-62 92 -195 92z" />
<glyph unicode="&#xfb04;" horiz-adv-x="1966" d="M1802 1106v-1106h-184v1106q0 104 -29 154.5t-115 50.5h-40v41h184q111 0 147.5 -47t36.5 -199zM1239 1290q-164 0 -164 -266v-61h287v-82h-287v-881h-184v881h-144v82h144v61q0 348 358 348q129 0 174 -31q39 -27 72 -92l-61 -51q-62 92 -195 92zM512 1290 q-164 0 -164 -266v-61h287v-82h-287v-881h-184v881h-144v82h144v61q0 348 358 348q129 0 174 -31q39 -27 72 -92l-61 -51q-62 92 -195 92z" />
<glyph unicode="&#xfb06;" horiz-adv-x="1576" d="M1055 246v635h-144v82h144v184l102 123h82v-307h246v-82h-246v-635q0 -184 144 -185q72 0 153 41l21 -41q-109 -82 -256 -81q-113 0 -179.5 66.5t-66.5 199.5zM809 246q0 -127 -99.5 -196.5t-258.5 -69.5q-236 0 -318 81q-25 25 -36 59t-13 63.5t-2 92.5h41 q33 -215 287 -215q111 0 168 40t57 104q0 59 -44 102t-140 82l-123 51q-123 51 -184.5 116t-61.5 161q0 127 93 196.5t245 69.5q225 0 307 -82q25 -25 36 -58.5t13 -63t2 -93.5h-41q-16 102 -85.5 158.5t-190.5 56.5q-96 0 -150.5 -40t-54.5 -103q0 -104 164 -174l123 -52 q139 -57 202.5 -120.5t63.5 -165.5z" />
<glyph unicode="&#xfb29;" horiz-adv-x="1024" d="M471 205v430h-430v82h430v430h82v-430h430v-82h-430v-430h-82z" />
</font>
</defs>
</svg>
